<svg version="1.1" id="Layer_1" xmlns="http://www.w3.org/2000/svg" xmlns:xlink="http://www.w3.org/1999/xlink" x="0px" y="0px"
	 width="100%" viewBox="0 0 512 512" enable-background="new 0 0 512 512" xml:space="preserve">
<path fill="#FFFFFF" opacity="1.000000" stroke="none" 
	d="
M54.000000,513.000000 
	C36.344173,513.000000 18.688351,513.000000 1.016263,513.000000 
	C1.016263,342.448914 1.016263,171.897827 1.016263,1.000000 
	C50.020348,1.000000 99.041519,1.000000 148.495438,1.347634 
	C148.721405,2.142586 148.639481,2.790454 148.289749,3.008193 
	C136.377914,10.424410 130.491501,21.807796 127.149551,34.902382 
	C125.881599,39.870491 122.838158,43.084354 118.178543,45.527145 
	C97.991249,56.110241 86.450531,72.288429 87.034882,95.810730 
	C87.129189,99.606735 88.415840,103.511314 87.835159,107.156021 
	C86.752998,113.948502 84.820160,120.618462 83.017014,127.278679 
	C81.722252,132.061142 79.577248,136.069870 73.388481,135.097885 
	C72.643257,134.980850 71.736214,135.894104 70.556656,136.256866 
	C68.405304,135.785568 66.601456,135.387253 64.418762,134.990265 
	C60.153019,134.684265 58.079067,137.309708 57.016903,140.272095 
	C55.591343,144.248016 54.210419,148.498413 54.138638,152.653900 
	C53.901985,166.354813 57.814991,180.066055 53.999847,193.773331 
	C53.999901,300.182220 53.999950,406.591095 54.000000,513.000000 
z"/>
<path fill="#FFFFFF" opacity="1.000000" stroke="none" 
	d="
M449.000000,1.000000 
	C470.318634,1.000000 491.637238,1.000000 512.952271,1.000003 
	C512.948608,171.666672 512.948608,342.333344 512.948608,513.000000 
	C493.577301,513.000000 474.257294,513.000000 454.467773,512.550171 
	C454.350281,506.647888 454.670227,501.193146 455.060211,495.743408 
	C456.359070,477.592377 458.758698,459.445831 458.803955,441.292755 
	C458.965729,376.381592 458.289764,311.468567 458.050049,246.555801 
	C458.017609,237.772552 458.940613,228.987167 458.953003,220.202133 
	C459.037750,160.077194 459.035461,99.952003 458.952576,39.827049 
	C458.941376,31.708740 458.435516,23.584486 457.948456,15.475611 
	C457.577698,9.303321 453.743683,4.477012 449.181213,3.664829 
	C449.062927,2.528151 449.031464,1.764076 449.000000,1.000000 
z"/>
<path fill="#FEFEFE" opacity="1.000000" stroke="none" 
	d="
M289.000000,1.000002 
	C321.354218,1.000000 353.708466,1.000000 386.527496,1.365716 
	C386.313507,3.001782 385.756622,4.357769 384.934784,5.527657 
	C381.423462,10.526206 377.289185,15.171536 374.376892,20.490396 
	C366.239563,35.352016 358.648285,50.511833 350.687195,65.471840 
	C349.763641,67.207359 347.870392,68.426849 346.426697,69.885582 
	C345.085876,68.530800 343.358704,67.390480 342.467896,65.785866 
	C337.289703,56.458324 331.871582,47.273251 322.687653,41.314713 
	C315.878754,36.897110 311.320679,31.040461 308.204071,23.618383 
	C304.805634,15.525289 299.544800,8.784969 291.822693,4.179070 
	C290.662476,3.487059 289.930237,2.077584 289.000000,1.000002 
z"/>
<path fill="#F2F2F2" opacity="1.000000" stroke="none" 
	d="
M449.268036,4.037432 
	C453.743683,4.477012 457.577698,9.303321 457.948456,15.475611 
	C458.435516,23.584486 458.941376,31.708740 458.952576,39.827049 
	C459.035461,99.952003 459.037750,160.077194 458.953003,220.202133 
	C458.940613,228.987167 458.017609,237.772552 458.050049,246.555801 
	C458.289764,311.468567 458.965729,376.381592 458.803955,441.292755 
	C458.758698,459.445831 456.359070,477.592377 455.060211,495.743408 
	C454.670227,501.193146 454.350281,506.647888 453.999146,512.550171 
	C452.285645,513.000000 450.571289,513.000000 448.428284,512.575073 
	C449.665985,488.032043 452.693756,463.918518 452.774048,439.795197 
	C453.235626,301.134155 452.998810,162.470779 452.997864,23.808199 
	C452.997864,21.974966 453.442535,19.980717 452.867676,18.347385 
	C452.067017,16.072523 450.498932,14.067764 449.197296,11.582127 
	C449.167053,10.477557 449.198761,9.738259 449.361877,8.898417 
	C449.665466,8.460581 449.572815,8.196256 449.158691,7.603134 
	C449.024109,6.123198 448.946106,5.045023 448.965637,3.998271 
	C449.063202,4.029693 449.268036,4.037432 449.268036,4.037432 
z"/>
<path fill="#E1E0DE" opacity="1.000000" stroke="none" 
	d="
M449.259277,11.947403 
	C450.498932,14.067764 452.067017,16.072523 452.867676,18.347385 
	C453.442535,19.980717 452.997864,21.974966 452.997864,23.808199 
	C452.998810,162.470779 453.235626,301.134155 452.774048,439.795197 
	C452.693756,463.918518 449.665985,488.032043 447.999817,512.575073 
	C446.611115,513.000000 445.222198,513.000000 443.398254,512.622070 
	C442.957001,511.487885 442.950775,510.731689 442.999207,509.561798 
	C443.759247,500.562744 444.533234,491.982391 445.156067,483.391022 
	C446.486206,465.041687 448.045044,446.701141 448.913361,428.328827 
	C449.486847,416.195435 449.022278,404.012970 449.022064,391.852478 
	C449.021118,342.044434 449.021759,292.236389 449.014221,242.428345 
	C449.013824,239.688629 449.825378,236.316513 445.131531,236.589661 
	C446.461548,232.118057 448.833221,228.017975 448.861725,223.901657 
	C449.108337,188.263275 448.933533,152.621964 448.946350,116.517670 
	C448.954773,108.426590 448.901062,100.799377 448.924805,92.698166 
	C448.965454,81.136833 448.928680,70.049500 448.956482,58.500114 
	C448.982422,48.033127 448.943756,38.028202 448.964844,27.558142 
	C449.102814,22.044474 449.181030,16.995941 449.259277,11.947403 
z"/>
<path fill="#F8F8F8" opacity="1.000000" stroke="none" 
	d="
M54.399994,513.000000 
	C53.999950,406.591095 53.999901,300.182220 53.999847,193.773331 
	C57.814991,180.066055 53.901985,166.354813 54.138638,152.653900 
	C54.210419,148.498413 55.591343,144.248016 57.016903,140.272095 
	C58.079067,137.309708 60.153019,134.684265 64.491837,135.402435 
	C64.648140,137.881744 64.352524,139.950165 63.692894,142.048615 
	C62.022060,143.479095 59.775829,144.759460 59.578671,146.301773 
	C58.895870,151.643097 58.633774,157.082397 58.759892,162.471558 
	C58.910973,168.927536 63.206333,174.739914 60.788418,181.839874 
	C58.909351,187.357544 58.118698,193.497787 58.110172,199.363174 
	C57.958218,303.908600 57.999950,408.454346 58.000000,513.000000 
	C56.933331,513.000000 55.866661,513.000000 54.399994,513.000000 
z"/>
<path fill="#E2E0DF" opacity="1.000000" stroke="none" 
	d="
M65.000000,513.000000 
	C64.250000,513.000000 63.500000,513.000000 62.375397,512.559875 
	C61.669285,508.331146 61.050232,504.542694 61.048225,500.753906 
	C60.995335,400.957428 60.993088,301.160889 61.049606,201.364410 
	C61.052128,196.908813 61.527412,192.431274 62.141140,188.013779 
	C62.296005,186.899048 63.836472,185.976807 64.826233,185.430801 
	C64.980324,199.264236 65.048386,212.632965 65.044281,226.465378 
	C65.006172,234.306747 65.040207,241.684433 65.041351,249.525848 
	C65.023575,312.993561 65.038696,375.997589 65.028214,439.469543 
	C65.029129,463.303894 65.055664,486.670288 65.044563,510.405823 
	C65.004623,511.516632 65.002312,512.258301 65.000000,513.000000 
z"/>
<path fill="#EFEFEF" opacity="1.000000" stroke="none" 
	d="
M64.740219,184.966110 
	C63.836472,185.976807 62.296005,186.899048 62.141140,188.013779 
	C61.527412,192.431274 61.052128,196.908813 61.049606,201.364410 
	C60.993088,301.160889 60.995335,400.957428 61.048225,500.753906 
	C61.050232,504.542694 61.669285,508.331146 62.000397,512.559875 
	C60.933331,513.000000 59.866661,513.000000 58.399994,513.000000 
	C57.999950,408.454346 57.958218,303.908600 58.110172,199.363174 
	C58.118698,193.497787 58.909351,187.357544 60.788418,181.839874 
	C63.206333,174.739914 58.910973,168.927536 58.759892,162.471558 
	C58.633774,157.082397 58.895870,151.643097 59.578671,146.301773 
	C59.775829,144.759460 62.022060,143.479095 63.664619,142.483597 
	C63.941650,144.919739 63.882942,146.950928 63.443748,149.096298 
	C62.708820,150.735336 61.901825,152.314346 62.076660,153.775894 
	C62.927231,160.886368 64.040573,167.965439 65.071304,175.336121 
	C65.129723,175.797516 65.177711,175.978394 65.184006,176.159836 
	C65.142311,176.160416 65.132912,176.077545 64.944031,176.111328 
	C64.663445,176.231476 64.478851,176.363754 64.495155,176.396729 
	C64.599030,176.606873 64.747154,176.795135 64.920059,177.433136 
	C64.886337,180.239151 64.813278,182.602631 64.740219,184.966110 
z"/>
<path fill="#CEAF76" opacity="1.000000" stroke="none" 
	d="
M65.466042,513.000000 
	C65.002312,512.258301 65.004623,511.516632 65.504898,510.401794 
	C79.334167,510.027435 92.665466,510.026855 105.996765,510.024933 
	C218.312683,510.008575 330.628601,509.992004 442.944519,509.975494 
	C442.950775,510.731689 442.957001,511.487885 442.981628,512.622070 
	C317.310699,513.000000 191.621384,513.000000 65.466042,513.000000 
z"/>
<path fill="#F4F5F3" opacity="1.000000" stroke="none" 
	d="
M70.904175,136.329834 
	C71.736214,135.894104 72.643257,134.980850 73.388481,135.097885 
	C79.577248,136.069870 81.722252,132.061142 83.017014,127.278679 
	C84.820160,120.618462 86.752998,113.948502 87.835159,107.156021 
	C88.415840,103.511314 87.129189,99.606735 87.034882,95.810730 
	C86.450531,72.288429 97.991249,56.110241 118.178543,45.527145 
	C122.838158,43.084354 125.881599,39.870491 127.149551,34.902382 
	C130.491501,21.807796 136.377914,10.424410 148.289749,3.008193 
	C148.639481,2.790454 148.721405,2.142586 148.964096,1.347634 
	C152.030594,1.000000 155.061188,1.000000 158.376099,1.293895 
	C155.446060,4.061065 152.231720,6.534338 148.714081,9.153675 
	C145.234070,14.522773 142.057358,19.745808 138.532318,25.040543 
	C137.448074,26.486654 136.568787,27.804674 136.001938,29.245604 
	C133.946396,34.470734 131.995636,39.737076 129.730667,45.055069 
	C129.081223,45.158997 128.706436,45.195732 127.959190,45.180809 
	C126.027252,45.935009 124.467781,46.740860 122.647141,47.695145 
	C122.000565,47.948490 121.615158,48.053398 120.911331,48.127945 
	C120.034660,48.610817 119.476410,49.124058 118.612045,49.814987 
	C112.891701,55.664944 107.477463,61.337208 101.703705,67.040337 
	C100.678574,67.521439 99.738068,67.818214 99.388268,68.444763 
	C93.427109,79.122276 90.349945,90.280197 92.615677,102.714813 
	C93.441895,107.249214 93.337921,112.220993 92.409332,116.736374 
	C91.355415,121.861122 88.912300,126.701981 87.053322,131.658829 
	C85.353790,136.190506 83.627808,140.712280 81.600945,145.093567 
	C77.826996,142.075760 74.365585,139.202805 70.904175,136.329834 
z"/>
<path fill="#F8F8F7" opacity="1.000000" stroke="none" 
	d="
M288.545898,1.000002 
	C289.930237,2.077584 290.662476,3.487059 291.822693,4.179070 
	C299.544800,8.784969 304.805634,15.525289 308.204071,23.618383 
	C311.320679,31.040461 315.878754,36.897110 322.687653,41.314713 
	C331.871582,47.273251 337.289703,56.458324 342.467896,65.785866 
	C343.358704,67.390480 345.085876,68.530800 346.426697,69.885582 
	C347.870392,68.426849 349.763641,67.207359 350.687195,65.471840 
	C358.648285,50.511833 366.239563,35.352016 374.376892,20.490396 
	C377.289185,15.171536 381.423462,10.526206 384.934784,5.527657 
	C385.756622,4.357769 386.313507,3.001782 386.996155,1.365716 
	C389.370575,1.000000 391.741119,1.000000 394.472900,1.303558 
	C394.472137,2.359297 394.110107,3.111477 393.527100,3.995797 
	C393.135162,4.422961 392.964203,4.717987 392.612823,5.133176 
	C392.212433,5.456483 392.069702,5.704150 391.825806,6.206544 
	C391.186249,6.980403 390.725037,7.544056 389.873199,8.075945 
	C387.607483,9.459456 385.045135,10.478830 383.965759,12.352508 
	C375.153137,27.650028 366.574921,43.083549 358.020905,58.528572 
	C355.133575,63.741879 352.663513,69.189339 349.693512,74.351891 
	C348.830688,75.851746 346.992676,77.417976 345.416962,77.639412 
	C344.506439,77.767349 342.946899,75.417023 342.168579,73.926651 
	C340.185852,70.130135 338.775299,66.013481 336.596527,62.345207 
	C332.396088,55.273041 328.117004,48.132740 319.399200,45.033569 
	C316.733734,43.199535 314.386047,41.445652 311.982269,39.362900 
	C309.348541,33.840740 307.173126,28.388256 304.052277,23.544977 
	C301.959900,20.297777 298.526642,17.914591 295.438416,14.968376 
	C294.085663,13.643466 292.987885,12.494983 291.797546,11.008280 
	C289.776855,9.163355 287.848663,7.656649 285.920837,6.100813 
	C285.921173,6.051682 285.824036,6.066547 285.717834,5.747434 
	C283.407745,3.952215 281.203888,2.476110 279.000000,1.000003 
	C282.030609,1.000000 285.061188,1.000000 288.545898,1.000002 
z"/>
<path fill="#A3CF7F" opacity="1.000000" stroke="none" 
	d="
M278.531342,1.000003 
	C281.203888,2.476110 283.407745,3.952215 285.333923,5.732432 
	C280.356842,5.352170 275.666565,4.162296 270.956482,4.077893 
	C256.641693,3.821378 242.319244,3.991992 227.531158,3.992077 
	C207.744354,3.987740 188.425934,4.043036 169.108154,3.955990 
	C162.751068,3.927345 156.398758,3.461949 151.414398,8.621159 
	C150.964294,9.087053 149.832565,8.894423 149.017380,9.007610 
	C152.231720,6.534338 155.446060,4.061065 158.830200,1.293895 
	C198.687561,1.000000 238.375122,1.000000 278.531342,1.000003 
z"/>
<path fill="#F1BE6D" opacity="1.000000" stroke="none" 
	d="
M393.748108,3.863658 
	C394.110107,3.111477 394.472137,2.359297 394.917053,1.303558 
	C412.687561,1.000000 430.375122,1.000000 448.531342,1.000000 
	C449.031464,1.764076 449.062927,2.528151 449.181213,3.664829 
	C449.268036,4.037432 449.063202,4.029693 448.507111,4.005098 
	C429.883392,3.941555 411.815735,3.902607 393.748108,3.863658 
z"/>
<path fill="#557831" opacity="1.000000" stroke="none" 
	d="
M70.556664,136.256866 
	C74.365585,139.202805 77.826996,142.075760 81.712189,145.391663 
	C83.397736,146.976990 84.659508,148.119370 86.032959,149.561188 
	C87.056190,151.013702 87.967728,152.166763 88.953178,153.643082 
	C90.499153,156.287262 91.971214,158.608170 93.240723,161.224503 
	C87.409691,165.017349 81.781219,168.514801 76.000549,171.699066 
	C72.541428,167.642899 69.234505,163.899918 65.713745,159.821030 
	C64.941345,155.984116 64.382790,152.483109 63.824234,148.982117 
	C63.882942,146.950928 63.941650,144.919739 64.028641,142.453583 
	C64.352524,139.950165 64.648140,137.881744 64.870682,135.401123 
	C66.601456,135.387253 68.405304,135.785568 70.556664,136.256866 
z"/>
<path fill="#EEB150" opacity="1.000000" stroke="none" 
	d="
M393.527100,3.995797 
	C411.815735,3.902607 429.883392,3.941555 448.409546,3.973676 
	C448.946106,5.045023 449.024109,6.123198 449.110016,7.852444 
	C449.155426,8.668664 449.192963,8.833812 449.230469,8.998960 
	C449.198761,9.738259 449.167053,10.477557 449.197296,11.582130 
	C449.181030,16.995941 449.102814,22.044474 448.668762,27.722712 
	C447.002014,30.625706 445.907471,33.061886 444.341003,35.142773 
	C438.909729,42.357445 431.773621,40.706276 424.455505,38.952728 
	C408.562225,35.144428 390.492218,45.073795 385.041840,60.368702 
	C382.642609,67.101440 384.880066,72.931633 390.790558,75.348175 
	C396.119141,77.526817 401.406219,75.023018 404.601501,68.807785 
	C408.441406,61.338623 413.861694,58.071640 421.621948,60.285152 
	C431.041504,62.971966 439.947510,62.401978 448.891907,58.962173 
	C448.928680,70.049500 448.965454,81.136833 448.486206,92.656509 
	C440.369720,91.747978 435.538879,94.381065 432.377411,101.861206 
	C428.816254,110.286926 419.089905,113.534538 410.050446,111.257820 
	C404.812744,109.938644 399.287354,109.104820 393.901978,109.156273 
	C379.681763,109.292160 363.595490,121.630249 359.606018,134.822769 
	C357.778748,140.865295 359.055206,145.564407 363.213684,148.103989 
	C369.860260,152.163055 376.523285,149.926971 379.644379,142.402267 
	C382.515137,135.481018 387.618408,131.740463 394.990295,131.362686 
	C393.969330,136.258057 393.549347,140.975281 391.806305,145.138550 
	C386.477417,157.866531 380.639771,170.381500 374.545349,183.001938 
	C354.390228,182.083740 339.528534,194.711029 334.111603,209.267532 
	C332.075012,214.740250 333.544769,218.535126 338.447205,222.760864 
	C342.544525,226.292679 346.231750,225.331360 350.058746,222.530823 
	C350.580200,222.149231 351.254028,221.975922 351.896057,222.110809 
	C351.462769,224.002380 351.136200,225.556320 350.488739,226.962524 
	C349.080322,230.021423 347.508301,233.005005 345.709930,236.283356 
	C340.277802,237.697220 335.138916,238.847092 329.641296,240.030914 
	C324.479492,243.013123 319.676392,245.961365 314.508850,248.961212 
	C310.446625,250.076797 306.748840,251.140762 302.749878,252.165161 
	C301.970184,252.434219 301.491638,252.742859 300.546234,253.044830 
	C295.385803,253.041992 290.692230,253.045822 285.831665,252.799255 
	C285.101196,252.380295 284.537750,252.211731 283.754944,252.010651 
	C283.535583,251.978149 283.093323,252.011597 283.105377,251.637741 
	C283.964325,248.932312 284.837555,246.609924 285.654114,244.267761 
	C295.456909,216.149597 305.132385,187.986206 315.114655,159.931946 
	C318.451294,150.554642 322.566162,141.454254 326.641296,132.095764 
	C329.955414,125.735031 332.953552,119.505829 336.246765,113.063889 
	C338.706146,108.627373 340.870392,104.403587 343.271179,99.972519 
	C343.697357,99.179291 343.887085,98.593346 344.042664,98.007370 
	C344.008545,98.007332 344.037018,98.069382 344.289093,97.896622 
	C344.721527,97.152718 344.901855,96.581566 345.051910,96.027374 
	C345.021637,96.044334 345.068115,96.096466 345.351746,95.906799 
	C346.528564,94.128426 347.508270,92.581665 348.301453,90.944550 
	C356.125885,74.795258 363.918274,58.630455 371.722260,42.471260 
	C373.733490,38.306705 375.753540,34.146416 377.943054,29.674541 
	C382.165649,22.279177 386.214752,15.193441 390.263824,8.107708 
	C390.725037,7.544056 391.186249,6.980403 392.067627,6.148700 
	C392.825714,5.674542 392.927521,5.385330 392.793243,5.013014 
	C392.964203,4.717987 393.135162,4.422961 393.527100,3.995797 
z"/>
<path fill="#E1E0DE" opacity="1.000000" stroke="none" 
	d="
M449.361877,8.898417 
	C449.192963,8.833812 449.155426,8.668664 449.166565,8.254206 
	C449.572815,8.196256 449.665466,8.460581 449.361877,8.898417 
z"/>
<path fill="#FAD390" opacity="1.000000" stroke="none" 
	d="
M442.999176,509.561798 
	C330.628601,509.992004 218.312683,510.008575 105.996765,510.024933 
	C92.665466,510.026855 79.334167,510.027435 65.542526,510.032654 
	C65.055664,486.670288 65.029129,463.303894 65.406754,439.468567 
	C67.886055,438.337372 69.961205,437.675110 71.973778,437.418274 
	C68.778572,448.433960 72.815544,453.983368 83.812241,453.996216 
	C113.963120,454.031433 144.114075,454.024689 174.264938,453.981628 
	C176.059265,453.979065 178.361069,454.121246 179.544861,453.136230 
	C182.308167,450.836853 185.470947,448.269531 186.743958,445.113708 
	C188.390427,441.032104 185.911575,436.990601 182.205124,435.025269 
	C179.437302,433.557617 175.860794,433.099274 172.639862,433.082916 
	C144.655197,432.940491 116.668861,432.902832 88.684738,433.090302 
	C83.789383,433.123047 78.902046,434.354340 74.050598,434.657745 
	C76.299660,433.189117 78.440987,431.362823 80.732437,431.149536 
	C85.853813,430.672852 91.068306,431.276245 96.211456,430.935394 
	C103.948082,430.422577 111.824791,430.225403 119.334099,428.530273 
	C128.980026,426.352844 138.352280,422.920105 147.778076,419.831757 
	C151.502655,418.611389 155.054108,416.862610 158.684402,415.354462 
	C155.785141,414.474335 153.242920,414.990326 150.707260,414.959991 
	C128.586731,414.695099 106.466110,414.386749 84.350449,413.876770 
	C82.877708,413.842773 81.445351,412.057587 80.463058,411.062256 
	C105.680168,411.033081 130.428436,411.037964 155.176682,411.017700 
	C161.456055,411.012543 163.881424,409.183838 166.383224,403.055542 
	C166.467087,404.914978 166.377686,406.761475 165.899124,408.500916 
	C165.534271,409.827087 164.675964,411.017487 164.037170,412.268311 
	C164.372025,412.601227 164.706894,412.934143 165.041748,413.267059 
	C168.831360,411.780945 172.748138,410.553284 176.387802,408.762451 
	C189.678879,402.222626 203.009827,395.739532 216.033203,388.694305 
	C220.127090,386.479645 225.850433,385.624573 227.489853,379.718750 
	C229.131134,380.174591 230.364624,380.685272 231.647018,380.990692 
	C242.312134,383.530609 252.377304,382.497742 261.354706,375.687042 
	C269.388702,369.591949 270.831482,361.694397 265.793518,354.165161 
	C268.942444,352.740448 271.831085,351.615723 274.405365,349.992493 
	C277.774994,347.867859 280.896271,345.349304 284.334412,343.301300 
	C286.641174,353.751587 293.659119,359.049408 303.121643,360.743896 
	C326.279236,364.890747 340.846130,356.760834 341.478302,331.533264 
	C341.732544,321.386169 342.093781,311.229828 341.886078,301.088348 
	C341.787354,296.270874 342.971375,293.572235 348.125458,293.289978 
	C351.289520,293.116730 353.002899,291.597687 351.547028,288.076752 
	C348.284027,287.894287 345.145660,287.718781 342.006531,287.141571 
	C342.577545,285.416870 342.931396,283.936584 343.754974,282.795349 
	C351.592133,271.935638 359.527069,261.146576 367.389282,250.304840 
	C369.195160,247.814514 371.235626,247.604584 373.901917,248.892593 
	C375.641327,249.732880 377.929352,251.685410 379.369812,248.028687 
	C388.931000,252.474289 398.769073,255.373260 408.556274,252.072327 
	C421.015533,247.870193 432.934753,242.066757 445.086792,236.953659 
	C449.825378,236.316513 449.013824,239.688629 449.014221,242.428345 
	C449.021759,292.236389 449.021118,342.044434 449.022064,391.852478 
	C449.022278,404.012970 449.486847,416.195435 448.913361,428.328827 
	C448.045044,446.701141 446.486206,465.041687 445.156067,483.391022 
	C444.533234,491.982391 443.759247,500.562744 442.999176,509.561798 
M378.727997,377.654816 
	C370.766754,375.468140 370.754669,375.468018 370.836243,366.951813 
	C370.852020,365.302856 371.003296,363.655182 371.960083,361.975494 
	C372.532837,361.886810 373.105560,361.798126 374.511658,361.689758 
	C385.412262,362.885559 394.461151,359.402405 400.298004,350.017944 
	C405.901520,341.008698 405.981232,331.027771 403.057648,321.029907 
	C399.397583,308.513458 386.337677,304.461792 376.065430,312.561005 
	C374.760590,313.589783 373.455597,314.618347 370.969177,316.578400 
	C372.745483,308.818909 369.102509,309.006195 364.781586,309.832550 
	C362.169373,310.332123 359.426880,310.245728 356.872742,310.916779 
	C355.401825,311.303223 354.189667,312.674652 352.861053,313.602722 
	C353.974335,314.718018 354.947296,316.570740 356.226471,316.814209 
	C360.543793,317.635773 361.591187,319.903656 361.489685,324.120453 
	C361.120850,339.444550 361.024384,354.779938 361.156342,370.108185 
	C361.190887,374.123474 360.360229,376.503021 356.008789,376.718506 
	C352.637604,376.885468 351.321442,378.737274 352.157928,382.823029 
	C352.668549,383.188629 353.175476,383.866821 353.690338,383.872894 
	C361.327942,383.963074 368.967468,384.022003 376.603638,383.902069 
	C377.420502,383.889252 378.219055,382.710541 379.079803,381.372284 
	C379.207367,380.924164 379.334961,380.476044 379.961395,379.919983 
	C379.796295,379.269623 379.631165,378.619263 378.727997,377.654816 
M155.500000,475.977631 
	C135.333649,475.977173 115.167290,475.976227 95.000938,475.976562 
	C90.001022,475.976654 84.996475,475.846375 80.002419,476.018585 
	C74.250793,476.216949 70.881149,480.350311 70.975113,486.729309 
	C71.056892,492.280853 74.716614,495.856567 80.304710,496.041443 
	C87.934631,496.293823 95.559822,496.910400 103.188599,496.937927 
	C133.354385,497.046722 163.520798,496.995819 193.686951,496.965942 
	C195.495758,496.964142 197.345734,496.814240 199.105560,496.417969 
	C205.898010,494.888336 208.688385,491.042755 208.011047,484.386230 
	C207.478424,479.151917 203.376511,475.995270 196.999344,475.986450 
	C183.499573,475.967865 169.999786,475.978821 155.500000,475.977631 
M258.247101,496.995148 
	C260.204895,496.716095 262.199036,496.588562 264.113647,496.129486 
	C269.839447,494.756653 272.717651,490.318787 271.997223,484.201996 
	C271.426331,479.354553 267.382111,476.041656 261.815308,475.999634 
	C254.824173,475.946899 247.828232,475.852936 240.843338,476.067749 
	C238.803696,476.130463 236.494385,476.743622 234.831024,477.873444 
	C230.772888,480.629913 228.752975,484.661377 230.416702,489.543182 
	C232.209732,494.804504 236.777222,496.619873 241.827606,496.919495 
	C246.970093,497.224579 252.144455,496.992188 258.247101,496.995148 
z"/>
<path fill="#EDAF4D" opacity="1.000000" stroke="none" 
	d="
M445.131531,236.589661 
	C432.934753,242.066757 421.015533,247.870193 408.556274,252.072327 
	C398.769073,255.373260 388.931000,252.474289 379.073730,247.859375 
	C368.840302,240.334167 358.142181,236.168182 346.003143,236.019379 
	C347.508301,233.005005 349.080322,230.021423 350.488739,226.962524 
	C351.136200,225.556320 351.462769,224.002380 351.973755,221.783844 
	C352.656799,219.902527 353.404694,218.798019 353.928711,217.595917 
	C358.249786,207.683121 363.184753,204.388489 373.999054,204.984497 
	C380.907654,205.365265 387.780182,206.870499 394.675751,206.920456 
	C408.594330,207.021317 424.722900,194.299149 428.520386,180.894760 
	C430.417389,174.198883 427.741241,168.966537 421.237549,166.655487 
	C416.312103,164.905243 410.558197,168.080078 408.200378,173.849060 
	C404.376007,183.206268 395.994598,187.522873 386.180573,185.270340 
	C382.473694,184.419556 378.727997,183.738022 375.000000,182.979324 
	C380.639771,170.381500 386.477417,157.866531 391.806305,145.138550 
	C393.549347,140.975281 393.969330,136.258057 395.252258,131.112793 
	C399.563110,131.083786 403.607819,132.210388 407.670959,132.281525 
	C414.394958,132.399231 421.249481,132.526093 427.832733,131.392822 
	C436.789520,129.850983 442.687927,123.011032 448.884247,116.981529 
	C448.933533,152.621964 449.108337,188.263275 448.861725,223.901657 
	C448.833221,228.017975 446.461548,232.118057 445.131531,236.589661 
z"/>
<path fill="#A77342" opacity="1.000000" stroke="none" 
	d="
M448.946350,116.517670 
	C442.687927,123.011032 436.789520,129.850983 427.832733,131.392822 
	C421.249481,132.526093 414.394958,132.399231 407.670959,132.281525 
	C403.607819,132.210388 399.563110,131.083786 395.248169,130.681305 
	C387.618408,131.740463 382.515137,135.481018 379.644379,142.402267 
	C376.523285,149.926971 369.860260,152.163055 363.213684,148.103989 
	C359.055206,145.564407 357.778748,140.865295 359.606018,134.822769 
	C363.595490,121.630249 379.681763,109.292160 393.901978,109.156273 
	C399.287354,109.104820 404.812744,109.938644 410.050446,111.257820 
	C419.089905,113.534538 428.816254,110.286926 432.377411,101.861206 
	C435.538879,94.381065 440.369720,91.747978 448.408783,93.130508 
	C448.901062,100.799377 448.954773,108.426590 448.946350,116.517670 
z"/>
<path fill="#A87342" opacity="1.000000" stroke="none" 
	d="
M448.956482,58.500114 
	C439.947510,62.401978 431.041504,62.971966 421.621948,60.285152 
	C413.861694,58.071640 408.441406,61.338623 404.601501,68.807785 
	C401.406219,75.023018 396.119141,77.526817 390.790558,75.348175 
	C384.880066,72.931633 382.642609,67.101440 385.041840,60.368702 
	C390.492218,45.073795 408.562225,35.144428 424.455505,38.952728 
	C431.773621,40.706276 438.909729,42.357445 444.341003,35.142773 
	C445.907471,33.061886 447.002014,30.625706 448.609009,28.187845 
	C448.943756,38.028202 448.982422,48.033127 448.956482,58.500114 
z"/>
<path fill="#FAD493" opacity="1.000000" stroke="none" 
	d="
M345.709930,236.283356 
	C358.142181,236.168182 368.840302,240.334167 378.706909,247.813110 
	C377.929352,251.685410 375.641327,249.732880 373.901917,248.892593 
	C371.235626,247.604584 369.195160,247.814514 367.389282,250.304840 
	C359.527069,261.146576 351.592133,271.935638 343.754974,282.795349 
	C342.931396,283.936584 342.577545,285.416870 341.548706,287.252106 
	C336.820435,287.747925 332.543304,287.863007 328.279968,287.671570 
	C325.118713,287.529602 323.546631,288.506134 324.279175,292.119904 
	C326.505341,292.843353 328.819824,293.595551 331.090942,294.768158 
	C330.890656,295.994537 331.007324,297.049316 330.535156,297.568542 
	C324.894653,303.770813 319.298065,310.022919 313.417175,315.993256 
	C309.220520,320.253723 304.611206,324.107666 300.025787,328.289124 
	C299.136414,327.279724 298.362335,326.812012 298.354797,326.332245 
	C298.185699,315.566284 298.100922,304.798981 298.322266,293.832520 
	C301.168732,292.259399 306.461456,293.967194 304.897430,287.341064 
	C295.433350,287.341064 285.967010,287.212219 276.513275,287.498291 
	C275.281616,287.535583 274.114624,289.708160 272.267822,291.534302 
	C275.081970,292.305603 276.344208,292.898071 277.632538,292.961578 
	C282.972382,293.224762 284.083038,295.954498 283.960602,301.058014 
	C283.625397,315.029388 284.019196,329.018280 284.124359,343.000183 
	C280.896271,345.349304 277.774994,347.867859 274.405365,349.992493 
	C271.831085,351.615723 268.942444,352.740448 265.477356,354.078186 
	C261.840759,353.014343 258.920410,351.959229 255.954788,350.550537 
	C253.902573,346.698364 252.272720,347.579285 250.385895,350.742554 
	C246.465027,350.738556 242.882141,351.092682 239.552429,350.334686 
	C237.632645,349.897675 234.787216,347.737244 234.703461,346.222809 
	C234.525955,343.013092 236.936661,341.821228 240.477631,342.015411 
	C254.703735,342.795532 263.141968,334.028351 262.349731,320.030212 
	C263.255829,319.067810 263.696075,318.246826 264.529663,317.471375 
	C269.092163,317.972260 270.178680,316.548645 269.806549,310.610168 
	C267.297791,310.610168 264.748413,310.610168 262.012756,310.247284 
	C260.822693,310.195221 259.818909,310.506042 258.414795,310.919769 
	C256.776978,310.571625 255.512085,310.183624 254.306351,309.659546 
	C244.745392,305.503418 234.438202,307.854614 228.574631,315.556091 
	C223.196640,322.619751 223.965958,329.496796 231.106155,338.974060 
	C231.043594,340.248566 231.021759,341.098938 230.821167,342.236938 
	C223.086792,348.644165 222.968048,349.854431 229.156143,358.700897 
	C228.550323,359.220886 227.956161,359.780151 227.312851,360.275604 
	C218.491211,367.070221 218.426865,372.812866 227.104721,379.678436 
	C225.850433,385.624573 220.127090,386.479645 216.033203,388.694305 
	C203.009827,395.739532 189.678879,402.222626 176.387802,408.762451 
	C172.748138,410.553284 168.831360,411.780945 165.041748,413.267059 
	C164.706894,412.934143 164.372025,412.601227 164.037170,412.268311 
	C164.675964,411.017487 165.534271,409.827087 165.899124,408.500916 
	C166.377686,406.761475 166.467087,404.914978 166.371368,402.656128 
	C166.025970,401.132050 166.033035,400.066345 166.375793,398.945740 
	C169.082169,396.272888 167.396805,395.476227 164.693451,394.878693 
	C163.607742,393.838654 162.798538,392.932434 161.961594,391.693756 
	C161.376053,390.697845 160.818237,390.034393 160.260422,389.370941 
	C159.840179,389.901520 159.419952,390.432068 158.584076,390.919556 
	C156.378479,390.590118 154.589142,390.059082 152.798492,390.054626 
	C129.981018,389.997894 107.163254,390.051025 84.345787,389.992096 
	C78.583588,389.977234 74.035057,391.985809 70.631500,397.059052 
	C67.168518,400.048218 66.670616,402.742065 71.134178,405.288757 
	C72.519073,407.051392 73.759537,408.525696 75.030434,410.292908 
	C75.707169,410.723907 76.353485,410.861969 77.374390,411.001068 
	C78.497391,411.030396 79.245811,411.058655 79.994217,411.086914 
	C81.445351,412.057587 82.877708,413.842773 84.350449,413.876770 
	C106.466110,414.386749 128.586731,414.695099 150.707260,414.959991 
	C153.242920,414.990326 155.785141,414.474335 158.684402,415.354462 
	C155.054108,416.862610 151.502655,418.611389 147.778076,419.831757 
	C138.352280,422.920105 128.980026,426.352844 119.334099,428.530273 
	C111.824791,430.225403 103.948082,430.422577 96.211456,430.935394 
	C91.068306,431.276245 85.853813,430.672852 80.732437,431.149536 
	C78.440987,431.362823 76.299660,433.189117 73.929489,434.918823 
	C73.191292,436.040436 72.613823,436.526642 72.036346,437.012878 
	C69.961205,437.675110 67.886055,438.337372 65.432365,439.000610 
	C65.038696,375.997589 65.023575,312.993561 65.370987,249.675446 
	C70.414810,250.241074 75.115410,251.940018 79.773384,251.830276 
	C89.515526,251.600769 99.086899,249.617142 107.367767,244.088455 
	C115.902588,238.390213 125.108688,235.790771 135.328690,235.996429 
	C146.059250,236.212372 155.184341,240.709076 163.962738,246.161728 
	C172.751068,251.620560 182.182724,253.974838 192.909485,252.916275 
	C198.593399,251.005508 203.838516,249.074020 209.340088,247.091553 
	C210.000275,246.742798 210.403976,246.445023 211.168060,246.073212 
	C212.253998,245.608566 213.009720,245.264923 213.700638,244.820511 
	C231.768143,233.199234 249.664612,233.255219 267.773987,245.006348 
	C272.433624,248.029984 277.963318,249.712814 283.093323,252.011597 
	C283.093323,252.011597 283.535583,251.978149 283.789551,252.297836 
	C284.695251,252.761551 285.346954,252.905594 285.998657,253.049637 
	C290.692230,253.045822 295.385803,253.041992 300.712402,253.260162 
	C301.913940,253.056335 302.482483,252.630524 303.051025,252.204727 
	C306.748840,251.140762 310.446625,250.076797 314.843292,249.116333 
	C319.824066,249.927811 327.848053,244.809204 330.000000,239.996948 
	C335.138916,238.847092 340.277802,237.697220 345.709930,236.283356 
M198.418762,356.933136 
	C199.903351,356.955902 201.387924,356.978638 203.449524,357.396851 
	C206.655029,361.015228 210.791199,360.578186 215.017868,360.238617 
	C218.679092,359.944519 220.056870,358.308990 219.193130,354.786987 
	C210.342117,351.466919 210.405991,351.466858 210.398148,341.609131 
	C210.392075,333.964417 210.455765,326.304565 209.999908,318.680695 
	C209.708237,313.802612 207.490936,309.762756 202.419205,307.928772 
	C195.353378,305.373657 183.033569,308.143127 178.512665,314.029327 
	C177.055954,315.925934 176.260315,319.526825 177.070312,321.604004 
	C177.767410,323.391724 181.179855,324.120605 184.000900,325.647369 
	C184.425034,322.635773 184.621536,321.169159 184.839722,319.705780 
	C185.304962,316.585144 185.319550,313.057007 189.595123,312.602417 
	C193.777969,312.157684 197.499680,313.420197 198.834915,317.678467 
	C200.127106,321.799438 200.566483,326.187805 201.419403,330.663177 
	C197.812378,331.275299 195.339737,331.566620 192.930237,332.128632 
	C186.513184,333.625458 180.514359,335.901764 176.436523,341.547272 
	C173.808594,345.185486 171.924683,348.625092 174.383102,353.441559 
	C177.016922,358.601685 180.969193,361.138397 186.356171,360.487213 
	C190.169800,360.026245 193.808212,358.115662 198.418762,356.933136 
M144.205383,359.341644 
	C144.829697,359.124573 145.454010,358.907532 146.864944,358.392334 
	C156.022400,357.180267 164.089615,354.212158 168.984894,344.894806 
	C169.310074,342.593781 169.635254,340.292755 169.811203,337.338135 
	C169.857071,336.896027 169.902939,336.453918 170.450851,335.669800 
	C170.107056,334.751892 169.763260,333.834015 169.068466,332.282532 
	C166.490845,324.654572 160.560074,321.245819 152.391006,319.753021 
	C154.477356,318.406250 156.002380,317.496887 157.448517,316.475861 
	C165.526535,310.772430 166.533173,297.517792 158.818054,291.780823 
	C155.226562,289.110168 150.498596,286.599152 146.220551,286.486206 
	C134.975418,286.189209 123.690399,287.181091 112.434921,287.879669 
	C111.429070,287.942078 109.933731,289.508942 109.765747,290.553955 
	C109.642899,291.318085 111.224716,292.514099 112.242645,293.244568 
	C112.853302,293.682770 113.838974,293.713165 114.659004,293.724976 
	C118.262032,293.776794 119.319237,295.475616 119.249100,299.084259 
	C118.935654,315.213989 118.977348,331.350372 118.735428,347.482056 
	C118.712906,348.983795 117.597786,350.469147 116.711288,351.520020 
	C116.119118,351.866272 115.526955,352.212524 114.345047,352.896027 
	C113.898361,352.936737 113.451675,352.977448 112.726662,352.558228 
	C112.132950,352.921600 111.539230,353.284943 110.325745,354.024200 
	C109.693329,354.992828 109.060921,355.961456 107.898254,357.113861 
	C108.346748,357.701508 108.795250,358.289185 110.149406,358.826813 
	C121.423325,358.848083 132.697250,358.869354 144.205383,359.341644 
z"/>
<path fill="#ED4A3C" opacity="1.000000" stroke="none" 
	d="
M192.470673,252.895554 
	C182.182724,253.974838 172.751068,251.620560 163.962738,246.161728 
	C155.184341,240.709076 146.059250,236.212372 135.328690,235.996429 
	C125.108688,235.790771 115.902588,238.390213 107.367767,244.088455 
	C99.086899,249.617142 89.515526,251.600769 79.773384,251.830276 
	C75.115410,251.940018 70.414810,250.241074 65.403885,249.211731 
	C65.040207,241.684433 65.006172,234.306747 65.438072,226.463989 
	C74.338493,223.140930 82.962410,220.740479 91.172821,217.341232 
	C118.555229,206.004501 143.040482,190.165619 164.285400,169.374130 
	C166.397018,167.307602 169.607529,166.363937 172.574738,165.080200 
	C176.683929,170.843658 180.526367,176.426056 184.331970,182.361984 
	C186.191940,186.157684 188.088760,189.599854 190.070221,193.396530 
	C191.608231,198.836548 193.061600,203.922043 194.411407,209.275879 
	C194.552841,210.022934 194.797836,210.501648 195.002640,211.403442 
	C195.127670,213.222595 195.292892,214.618683 195.342072,216.356323 
	C195.477402,217.801788 195.728760,218.905701 195.932190,220.467896 
	C195.928238,224.620041 195.972229,228.313889 195.775681,232.262009 
	C195.517456,233.671646 195.499756,234.827011 195.347015,236.383499 
	C195.148331,238.192902 195.084656,239.601166 194.796906,241.187592 
	C194.544739,241.907761 194.516663,242.449768 194.341553,243.384033 
	C193.619934,246.816040 193.045303,249.855789 192.470673,252.895554 
z"/>
<path fill="#EE4C3E" opacity="1.000000" stroke="none" 
	d="
M172.307999,164.899109 
	C169.607529,166.363937 166.397018,167.307602 164.285400,169.374130 
	C143.040482,190.165619 118.555229,206.004501 91.172821,217.341232 
	C82.962410,220.740479 74.338493,223.140930 65.510223,226.000336 
	C65.048386,212.632965 64.980324,199.264236 64.826241,185.430801 
	C64.813278,182.602631 64.886337,180.239151 65.038368,177.220139 
	C65.117340,176.564606 65.132912,176.077545 65.132912,176.077545 
	C65.132912,176.077545 65.142311,176.160416 65.570450,176.134842 
	C69.383316,174.743591 72.768036,173.377914 76.152748,172.012238 
	C81.781219,168.514801 87.409691,165.017349 93.547287,161.169037 
	C96.564484,158.354202 99.072540,155.890244 101.910378,153.355255 
	C103.471367,152.462921 104.737206,151.688736 105.928383,150.813004 
	C116.999115,142.673965 128.922012,137.767456 143.314056,141.132339 
	C155.967239,145.792847 165.251678,153.991409 172.307999,164.899109 
z"/>
<path fill="#E2E0DF" opacity="1.000000" stroke="none" 
	d="
M63.443748,149.096298 
	C64.382790,152.483109 64.941345,155.984116 65.721100,160.232132 
	C66.971207,165.181381 68.000122,169.383606 69.076927,173.781433 
	C67.851738,174.170151 66.456314,174.612885 65.060890,175.055618 
	C64.040573,167.965439 62.927231,160.886368 62.076660,153.775894 
	C61.901825,152.314346 62.708820,150.735336 63.443748,149.096298 
z"/>
<path fill="#CCC6C2" opacity="1.000000" stroke="none" 
	d="
M65.071304,175.336121 
	C66.456314,174.612885 67.851738,174.170151 69.076927,173.781433 
	C68.000122,169.383606 66.971207,165.181381 65.934937,160.568054 
	C69.234505,163.899918 72.541428,167.642899 76.000549,171.699051 
	C72.768036,173.377914 69.383316,174.743591 65.612152,176.134262 
	C65.177711,175.978394 65.129723,175.797516 65.071304,175.336121 
z"/>
<path fill="#E2E0DF" opacity="1.000000" stroke="none" 
	d="
M64.944031,176.111328 
	C65.132912,176.077545 65.117340,176.564606 64.999023,176.777603 
	C64.747154,176.795135 64.599030,176.606873 64.495155,176.396729 
	C64.478851,176.363754 64.663445,176.231476 64.944031,176.111328 
z"/>
<path fill="#8FC463" opacity="1.000000" stroke="none" 
	d="
M143.001434,140.954529 
	C128.922012,137.767456 116.999115,142.673965 105.928383,150.813004 
	C104.737206,151.688736 103.471367,152.462921 101.568390,153.135712 
	C99.492943,151.410431 97.601219,150.050751 96.783760,148.213181 
	C94.884941,143.944794 93.504509,139.445801 91.945595,134.599777 
	C91.983749,132.106705 91.990280,130.054138 92.103584,127.642845 
	C94.670738,121.908195 97.131119,116.532280 99.895927,111.061554 
	C100.970268,109.058998 102.932678,106.540413 102.318596,105.341614 
	C97.994606,96.900436 97.661728,88.027130 98.551895,78.549194 
	C99.814445,74.452354 100.938835,70.730919 102.063225,67.009476 
	C107.477463,61.337208 112.891701,55.664944 118.918701,49.876793 
	C120.097557,49.226707 120.663651,48.692505 121.229744,48.158310 
	C121.615158,48.053398 122.000565,47.948490 122.994049,47.774555 
	C125.178635,46.881176 126.755150,46.056820 128.331665,45.232460 
	C128.706436,45.195732 129.081223,45.158997 129.985535,45.267601 
	C132.439468,45.145405 134.482864,45.183041 136.243759,44.496315 
	C137.306396,44.081905 138.585953,42.575619 138.640854,41.502293 
	C138.922226,36.001446 138.837463,30.481871 138.880646,24.968842 
	C142.057358,19.745808 145.234070,14.522773 148.714081,9.153673 
	C149.832565,8.894423 150.964294,9.087053 151.414398,8.621159 
	C156.398758,3.461949 162.751068,3.927345 169.108154,3.955990 
	C188.425934,4.043036 207.744354,3.987740 227.440918,4.389289 
	C226.321793,5.193779 224.830399,5.915903 223.325638,5.944914 
	C216.675232,6.073136 210.020355,6.054625 203.368393,5.977992 
	C200.565567,5.945704 199.419724,6.919397 198.907562,9.920271 
	C196.164322,25.993433 194.230667,42.324230 189.900436,57.980530 
	C182.436508,84.966972 168.800491,108.959969 150.405762,130.194550 
	C147.572662,133.465042 145.451736,137.352448 143.001434,140.954529 
z"/>
<path fill="#EBECE9" opacity="1.000000" stroke="none" 
	d="
M99.591507,111.156364 
	C97.131119,116.532280 94.670738,121.908195 91.735695,127.709251 
	C90.507072,130.054184 89.505180,131.916916 89.047638,133.904938 
	C87.876335,138.994141 86.947227,144.139084 85.921272,149.261734 
	C84.659508,148.119370 83.397736,146.976990 82.024727,145.536530 
	C83.627808,140.712280 85.353790,136.190506 87.053322,131.658829 
	C88.912300,126.701981 91.355415,121.861122 92.409332,116.736374 
	C93.337921,112.220993 93.441895,107.249214 92.615677,102.714813 
	C90.349945,90.280197 93.427109,79.122276 99.388268,68.444763 
	C99.738068,67.818214 100.678574,67.521439 101.703705,67.040337 
	C100.938835,70.730919 99.814445,74.452354 98.249771,78.693161 
	C94.600731,87.778488 94.733551,96.525543 96.697350,105.277855 
	C97.162178,107.349518 98.600815,109.202690 99.591507,111.156364 
z"/>
<path fill="#DBE1D5" opacity="1.000000" stroke="none" 
	d="
M138.532318,25.040539 
	C138.837463,30.481871 138.922226,36.001446 138.640854,41.502293 
	C138.585953,42.575619 137.306396,44.081905 136.243759,44.496315 
	C134.482864,45.183041 132.439468,45.145405 130.260223,45.200409 
	C131.995636,39.737076 133.946396,34.470734 136.001938,29.245604 
	C136.568787,27.804674 137.448074,26.486654 138.532318,25.040539 
z"/>
<path fill="#DBE1D5" opacity="1.000000" stroke="none" 
	d="
M127.959190,45.180809 
	C126.755150,46.056820 125.178635,46.881176 123.255219,47.626122 
	C124.467781,46.740860 126.027252,45.935009 127.959190,45.180809 
z"/>
<path fill="#DBE1D5" opacity="1.000000" stroke="none" 
	d="
M120.911331,48.127945 
	C120.663651,48.692505 120.097557,49.226707 119.224808,49.699100 
	C119.476410,49.124058 120.034660,48.610817 120.911331,48.127945 
z"/>
<path fill="#8EC360" opacity="1.000000" stroke="none" 
	d="
M143.314056,141.132339 
	C145.451736,137.352448 147.572662,133.465042 150.405762,130.194550 
	C168.800491,108.959969 182.436508,84.966972 189.900436,57.980530 
	C194.230667,42.324230 196.164322,25.993433 198.907562,9.920271 
	C199.419724,6.919397 200.565567,5.945704 203.368393,5.977992 
	C210.020355,6.054625 216.675232,6.073136 223.325638,5.944914 
	C224.830399,5.915903 226.321793,5.193779 227.909561,4.393491 
	C242.319244,3.991992 256.641693,3.821378 270.956482,4.077893 
	C275.666565,4.162296 280.356842,5.352170 285.440125,6.051546 
	C285.824036,6.066547 285.921173,6.051682 285.973969,6.429540 
	C287.981201,8.320434 289.935638,9.833469 291.890076,11.346502 
	C292.987885,12.494983 294.085663,13.643466 295.531006,15.317675 
	C297.768860,20.217009 300.805756,24.468916 301.285889,28.992214 
	C302.041626,36.112259 306.349121,38.260078 312.038330,39.691772 
	C314.386047,41.445652 316.733734,43.199535 319.509888,45.358456 
	C326.185120,52.215256 331.819336,59.065266 334.296448,68.277649 
	C334.830872,70.081512 335.419891,71.540039 336.007690,73.330460 
	C336.085480,74.096893 336.164459,74.531433 336.168915,75.397537 
	C336.349243,79.266983 336.865967,82.709282 336.808167,86.141907 
	C336.655884,95.189056 336.254120,104.232002 335.951691,113.276627 
	C332.953552,119.505829 329.955414,125.735031 326.432648,131.773376 
	C324.413788,128.995773 323.059357,126.315514 321.401367,123.838440 
	C314.094055,112.921265 303.135895,106.654320 291.843140,100.821487 
	C282.377228,95.932243 280.496704,92.530807 281.625122,81.955780 
	C285.066376,79.215218 289.073608,77.260727 291.299957,74.065407 
	C296.069519,67.219986 293.998138,59.745506 290.215057,53.321617 
	C286.417603,46.873344 279.885193,45.520657 272.701050,47.091335 
	C253.527420,51.283291 234.318146,55.315308 215.171677,59.626900 
	C208.401199,61.151543 201.771439,63.301132 194.894409,64.894028 
	C190.689453,65.779030 188.946716,68.640678 190.135956,72.469879 
	C190.486694,77.869736 190.873581,82.876068 190.987106,88.053467 
	C191.238037,88.782272 191.762329,89.340004 192.550598,90.074677 
	C194.209763,91.798073 195.604935,93.344528 197.026123,95.197113 
	C197.708405,95.652374 198.364639,95.801498 199.426971,95.994598 
	C203.203644,96.318092 206.574249,96.597610 210.143280,97.159546 
	C211.223251,97.629616 212.104797,97.817268 213.295212,98.199226 
	C217.371048,104.079529 216.514862,111.322098 212.275009,117.261513 
	C206.779999,124.959236 201.822403,133.040588 196.312439,141.059540 
	C194.932007,146.086700 193.872574,151.011093 192.866333,156.389450 
	C192.883286,159.584625 192.847031,162.325836 192.565201,165.334671 
	C193.050491,168.416458 193.781372,171.230637 194.638092,174.364319 
	C194.794510,175.138382 194.825073,175.592957 194.631470,176.240738 
	C194.802307,177.305115 195.197327,178.176254 195.707962,179.365097 
	C195.854462,180.130630 195.885345,180.578461 195.711090,181.174911 
	C195.825119,181.901367 196.144302,182.479218 196.594940,183.375534 
	C196.754227,184.150101 196.782043,184.606201 196.594223,185.257797 
	C196.770569,186.318863 197.162537,187.184418 197.670258,188.370178 
	C197.810791,189.141556 197.835587,189.592743 197.663895,190.194031 
	C197.786057,190.915695 198.104721,191.487244 198.571350,192.409531 
	C198.786301,193.515198 198.853317,194.270142 198.712814,195.174561 
	C198.845596,195.900955 199.185898,196.477859 199.641464,197.375488 
	C199.783783,198.147736 199.810822,198.599289 199.645432,199.201874 
	C199.771591,199.921646 200.090179,200.490387 200.556793,201.430771 
	C201.078690,203.886490 201.452560,205.970551 201.636292,208.205109 
	C201.760132,208.923309 202.074112,209.491013 202.539856,210.429657 
	C203.061249,212.888351 203.430893,214.976105 203.615143,217.213333 
	C203.732498,217.927902 204.035233,218.492996 204.495285,219.430344 
	C205.023773,221.894806 205.394958,223.987045 205.559052,226.274261 
	C205.725372,227.330490 206.098785,228.191696 206.604553,229.370972 
	C206.768753,230.144638 206.800598,230.600266 206.612579,231.249130 
	C206.780502,232.311432 207.168274,233.180466 207.678192,234.367218 
	C207.829910,235.135559 207.859482,235.586197 207.640442,236.271332 
	C208.098175,238.685623 208.804504,240.865402 209.634186,243.366455 
	C209.784256,244.143555 209.810989,244.599396 209.611755,245.242508 
	C209.285049,246.000702 209.184326,246.571625 209.083618,247.142532 
	C203.838516,249.074020 198.593399,251.005508 192.909485,252.916275 
	C193.045303,249.855789 193.619934,246.816040 194.583038,243.326538 
	C194.988022,242.254364 195.004517,241.631897 195.020996,241.009445 
	C195.084656,239.601166 195.148331,238.192902 195.635971,236.291595 
	C196.045380,234.534943 196.030792,233.271347 196.016205,232.007736 
	C195.972229,228.313889 195.928238,224.620041 196.192886,220.262817 
	C196.153732,218.404541 195.805923,217.209656 195.458099,216.014771 
	C195.292892,214.618683 195.127670,213.222595 195.212311,211.258911 
	C195.146439,210.130051 194.830704,209.568802 194.514954,209.007553 
	C193.061600,203.922043 191.608231,198.836548 190.038635,193.023071 
	C188.071198,188.866226 186.220001,185.437332 184.368805,182.008453 
	C180.526367,176.426056 176.683929,170.843658 172.574738,165.080185 
	C165.251678,153.991409 155.967239,145.792847 143.314056,141.132339 
z"/>
<path fill="#F1F2F0" opacity="1.000000" stroke="none" 
	d="
M334.351013,67.932327 
	C331.819336,59.065266 326.185120,52.215256 319.827637,45.438614 
	C328.117004,48.132740 332.396088,55.273041 336.596527,62.345207 
	C338.775299,66.013481 340.185852,70.130135 342.168579,73.926651 
	C342.946899,75.417023 344.506439,77.767349 345.416962,77.639412 
	C346.992676,77.417976 348.830688,75.851746 349.693512,74.351891 
	C352.663513,69.189339 355.133575,63.741879 358.020905,58.528572 
	C366.574921,43.083549 375.153137,27.650028 383.965759,12.352508 
	C385.045135,10.478830 387.607483,9.459456 389.873199,8.075943 
	C386.214752,15.193441 382.165649,22.279177 377.615112,29.725410 
	C375.531372,32.143597 373.606628,34.022373 372.422882,36.288254 
	C365.219971,50.075249 358.252533,63.985352 351.037323,77.765785 
	C349.637329,80.439728 347.490723,82.722763 344.824646,86.366837 
	C343.028137,82.929390 341.897247,80.691360 340.697510,78.490860 
	C339.506561,76.306526 338.246368,74.159973 336.880219,71.693497 
	C335.946289,70.237541 335.148651,69.084930 334.351013,67.932327 
z"/>
<path fill="#EAEEE7" opacity="1.000000" stroke="none" 
	d="
M311.982269,39.362900 
	C306.349121,38.260078 302.041626,36.112259 301.285889,28.992214 
	C300.805756,24.468916 297.768860,20.217009 295.785950,15.494102 
	C298.526642,17.914591 301.959900,20.297777 304.052277,23.544977 
	C307.173126,28.388256 309.348541,33.840740 311.982269,39.362900 
z"/>
<path fill="#A3CF7F" opacity="1.000000" stroke="none" 
	d="
M291.797546,11.008283 
	C289.935638,9.833469 287.981201,8.320434 285.973633,6.478671 
	C287.848663,7.656649 289.776855,9.163355 291.797546,11.008283 
z"/>
<path fill="#EEEBE3" opacity="1.000000" stroke="none" 
	d="
M392.612823,5.133177 
	C392.927521,5.385330 392.825714,5.674542 392.246002,5.938495 
	C392.069702,5.704150 392.212433,5.456483 392.612823,5.133177 
z"/>
<path fill="#D3D2CC" opacity="1.000000" stroke="none" 
	d="
M91.913971,135.040283 
	C93.504509,139.445801 94.884941,143.944794 96.783760,148.213181 
	C97.601219,150.050751 99.492943,151.410431 101.238609,153.206757 
	C99.072540,155.890244 96.564484,158.354202 93.749855,160.873627 
	C91.971214,158.608170 90.499153,156.287262 89.164429,153.285889 
	C89.870811,150.814377 90.727432,149.058273 90.950134,147.225143 
	C91.441055,143.184143 91.612289,139.104279 91.913971,135.040283 
z"/>
<path fill="#E4E5E3" opacity="1.000000" stroke="none" 
	d="
M91.945602,134.599777 
	C91.612289,139.104279 91.441055,143.184143 90.950134,147.225143 
	C90.727432,149.058273 89.870811,150.814377 89.090515,152.962616 
	C87.967728,152.166763 87.056190,151.013702 86.032959,149.561188 
	C86.947227,144.139084 87.876335,138.994141 89.047638,133.904938 
	C89.505180,131.916916 90.507072,130.054184 91.628922,128.067978 
	C91.990280,130.054138 91.983749,132.106705 91.945602,134.599777 
z"/>
<path fill="#DBE8EF" opacity="1.000000" stroke="none" 
	d="
M281.383942,82.179451 
	C280.496704,92.530807 282.377228,95.932243 291.843140,100.821487 
	C303.135895,106.654320 314.094055,112.921265 321.401367,123.838440 
	C323.059357,126.315514 324.413788,128.995773 326.116638,131.904892 
	C322.566162,141.454254 318.451294,150.554642 315.114655,159.931946 
	C305.132385,187.986206 295.456909,216.149597 285.654114,244.267761 
	C284.837555,246.609924 283.964325,248.932312 283.105377,251.637726 
	C277.963318,249.712814 272.433624,248.029984 267.773987,245.006348 
	C249.664612,233.255219 231.768143,233.199234 213.700638,244.820511 
	C213.009720,245.264923 212.253998,245.608566 211.075546,245.835632 
	C210.361008,245.466476 210.099365,245.260849 209.837738,245.055222 
	C209.810989,244.599396 209.784256,244.143555 209.740524,242.998871 
	C209.112045,240.218964 208.500549,238.127884 207.889069,236.036819 
	C207.859482,235.586197 207.829910,235.135559 207.781097,234.043167 
	C207.452072,232.619553 207.142258,231.837723 206.832458,231.055878 
	C206.800598,230.600266 206.768753,230.144638 206.722046,229.049316 
	C206.393509,227.632812 206.079819,226.856049 205.766144,226.079269 
	C205.394958,223.987045 205.023773,221.894806 204.626984,219.159821 
	C204.334412,218.032669 204.067474,217.548279 203.800537,217.063873 
	C203.430893,214.976105 203.061249,212.888351 202.657440,210.155792 
	C202.357651,209.025528 202.092041,208.540070 201.826416,208.054626 
	C201.452560,205.970551 201.078690,203.886490 200.669434,201.155548 
	C200.368668,200.022720 200.103271,199.536774 199.837860,199.050827 
	C199.810822,198.599289 199.783783,198.147736 199.733063,197.093842 
	C199.446381,196.002686 199.183365,195.513885 198.920334,195.025085 
	C198.853317,194.270142 198.786301,193.515198 198.684479,192.134003 
	C198.386566,191.019806 198.123474,190.531860 197.860397,190.043915 
	C197.835587,189.592743 197.810791,189.141556 197.769989,188.046387 
	C197.439301,186.622375 197.124573,185.842331 196.809860,185.062302 
	C196.782043,184.606201 196.754227,184.150101 196.706116,183.099823 
	C196.429306,182.012543 196.172760,181.519424 195.916229,181.026306 
	C195.885345,180.578461 195.854462,180.130630 195.804413,179.040283 
	C195.475372,177.614349 195.165497,176.830933 194.855637,176.047516 
	C194.825073,175.592957 194.794510,175.138382 194.743301,173.976761 
	C194.085358,170.535477 193.448074,167.801270 192.810776,165.067047 
	C192.847031,162.325836 192.883286,159.584625 193.142944,156.126755 
	C194.455383,150.592331 195.544418,145.774551 196.633453,140.956787 
	C201.822403,133.040588 206.779999,124.959236 212.275009,117.261513 
	C216.514862,111.322098 217.371048,104.079529 213.206543,97.936829 
	C212.460388,97.051071 212.111755,96.622017 212.179840,96.121048 
	C229.192322,92.401428 245.765762,88.647224 262.395325,85.160728 
	C268.657928,83.847725 275.050568,83.154961 281.383942,82.179451 
z"/>
<path fill="#A77342" opacity="1.000000" stroke="none" 
	d="
M374.545349,183.001938 
	C378.727997,183.738022 382.473694,184.419556 386.180573,185.270340 
	C395.994598,187.522873 404.376007,183.206268 408.200378,173.849060 
	C410.558197,168.080078 416.312103,164.905243 421.237549,166.655487 
	C427.741241,168.966537 430.417389,174.198883 428.520386,180.894760 
	C424.722900,194.299149 408.594330,207.021317 394.675751,206.920456 
	C387.780182,206.870499 380.907654,205.365265 373.999054,204.984497 
	C363.184753,204.388489 358.249786,207.683121 353.928711,217.595917 
	C353.404694,218.798019 352.656799,219.902527 351.934998,221.379227 
	C351.254028,221.975922 350.580200,222.149231 350.058746,222.530823 
	C346.231750,225.331360 342.544525,226.292679 338.447205,222.760864 
	C333.544769,218.535126 332.075012,214.740250 334.111603,209.267532 
	C339.528534,194.711029 354.390228,182.083740 374.545349,183.001938 
z"/>
<path fill="#EEEBE3" opacity="1.000000" stroke="none" 
	d="
M337.016541,71.996849 
	C338.246368,74.159973 339.506561,76.306526 340.697510,78.490860 
	C341.897247,80.691360 343.028137,82.929390 344.824646,86.366837 
	C347.490723,82.722763 349.637329,80.439728 351.037323,77.765785 
	C358.252533,63.985352 365.219971,50.075249 372.422882,36.288254 
	C373.606628,34.022373 375.531372,32.143597 377.441589,30.035038 
	C375.753540,34.146416 373.733490,38.306705 371.722260,42.471260 
	C363.918274,58.630455 356.125885,74.795258 348.301453,90.944550 
	C347.508270,92.581665 346.528564,94.128426 345.335938,95.529388 
	C345.098572,93.452187 346.565186,91.381584 343.212250,90.282021 
	C341.792633,89.816460 340.845917,87.280037 340.104523,85.508942 
	C338.660828,82.060204 337.513489,78.487404 336.243469,74.965988 
	C336.164459,74.531433 336.085480,74.096893 336.230408,73.226379 
	C336.723083,72.583527 336.910492,72.319016 337.016541,71.996849 
z"/>
<path fill="#DDDDD5" opacity="1.000000" stroke="none" 
	d="
M336.168884,75.397537 
	C337.513489,78.487404 338.660828,82.060204 340.104523,85.508942 
	C340.845917,87.280037 341.792633,89.816460 343.212250,90.282021 
	C346.565186,91.381584 345.098572,93.452187 345.052307,95.719055 
	C345.068115,96.096466 345.021637,96.044334 344.784973,96.186768 
	C344.377899,96.909256 344.207458,97.489319 344.037018,98.069382 
	C344.037018,98.069382 344.008545,98.007332 343.770172,98.179489 
	C343.366089,98.961029 343.200378,99.570412 343.034668,100.179794 
	C340.870392,104.403587 338.706146,108.627373 336.246765,113.063889 
	C336.254120,104.232002 336.655884,95.189056 336.808167,86.141907 
	C336.865967,82.709282 336.349243,79.266983 336.168884,75.397537 
z"/>
<path fill="#FAD390" opacity="1.000000" stroke="none" 
	d="
M329.641296,240.030914 
	C327.848053,244.809204 319.824066,249.927811 315.207703,249.064713 
	C319.676392,245.961365 324.479492,243.013123 329.641296,240.030914 
z"/>
<path fill="#F0CD84" opacity="1.000000" stroke="none" 
	d="
M302.749878,252.165161 
	C302.482483,252.630524 301.913940,253.056335 301.179260,253.266815 
	C301.491638,252.742859 301.970184,252.434219 302.749878,252.165161 
z"/>
<path fill="#F0CD84" opacity="1.000000" stroke="none" 
	d="
M285.831665,252.799255 
	C285.346954,252.905594 284.695251,252.761551 284.008911,252.330353 
	C284.537750,252.211731 285.101196,252.380295 285.831665,252.799255 
z"/>
<path fill="#EEEBE3" opacity="1.000000" stroke="none" 
	d="
M344.289093,97.896622 
	C344.207458,97.489319 344.377899,96.909256 344.815247,96.169800 
	C344.901855,96.581566 344.721527,97.152718 344.289093,97.896622 
z"/>
<path fill="#EEEBE3" opacity="1.000000" stroke="none" 
	d="
M343.271149,99.972519 
	C343.200378,99.570412 343.366089,98.961029 343.804321,98.179520 
	C343.887085,98.593346 343.697357,99.179291 343.271149,99.972519 
z"/>
<path fill="#E1B978" opacity="1.000000" stroke="none" 
	d="
M156.000000,475.977631 
	C169.999786,475.978821 183.499573,475.967865 196.999344,475.986450 
	C203.376511,475.995270 207.478424,479.151917 208.011047,484.386230 
	C208.688385,491.042755 205.898010,494.888336 199.105560,496.417969 
	C197.345734,496.814240 195.495758,496.964142 193.686951,496.965942 
	C163.520798,496.995819 133.354385,497.046722 103.188599,496.937927 
	C95.559822,496.910400 87.934631,496.293823 80.304710,496.041443 
	C74.716614,495.856567 71.056892,492.280853 70.975113,486.729309 
	C70.881149,480.350311 74.250793,476.216949 80.002419,476.018585 
	C84.996475,475.846375 90.001022,475.976654 95.000938,475.976562 
	C115.167290,475.976227 135.333649,475.977173 156.000000,475.977631 
z"/>
<path fill="#E0B979" opacity="1.000000" stroke="none" 
	d="
M71.973770,437.418274 
	C72.613823,436.526642 73.191292,436.040436 73.889885,435.293152 
	C78.902046,434.354340 83.789383,433.123047 88.684738,433.090302 
	C116.668861,432.902832 144.655197,432.940491 172.639862,433.082916 
	C175.860794,433.099274 179.437302,433.557617 182.205124,435.025269 
	C185.911575,436.990601 188.390427,441.032104 186.743958,445.113708 
	C185.470947,448.269531 182.308167,450.836853 179.544861,453.136230 
	C178.361069,454.121246 176.059265,453.979065 174.264938,453.981628 
	C144.114075,454.024689 113.963120,454.031433 83.812241,453.996216 
	C72.815544,453.983368 68.778572,448.433960 71.973770,437.418274 
z"/>
<path fill="#120F0B" opacity="1.000000" stroke="none" 
	d="
M331.134308,294.347717 
	C328.819824,293.595551 326.505341,292.843353 324.279175,292.119904 
	C323.546631,288.506134 325.118713,287.529602 328.279968,287.671570 
	C332.543304,287.863007 336.820435,287.747925 341.549469,287.653839 
	C345.145660,287.718781 348.284027,287.894287 351.547028,288.076752 
	C353.002899,291.597687 351.289520,293.116730 348.125458,293.289978 
	C342.971375,293.572235 341.787354,296.270874 341.886078,301.088348 
	C342.093781,311.229828 341.732544,321.386169 341.478302,331.533264 
	C340.846130,356.760834 326.279236,364.890747 303.121643,360.743896 
	C293.659119,359.049408 286.641174,353.751587 284.334412,343.301331 
	C284.019196,329.018280 283.625397,315.029388 283.960602,301.058014 
	C284.083038,295.954498 282.972382,293.224762 277.632538,292.961578 
	C276.344208,292.898071 275.081970,292.305603 272.267822,291.534302 
	C274.114624,289.708160 275.281616,287.535583 276.513275,287.498291 
	C285.967010,287.212219 295.433350,287.341064 304.897430,287.341064 
	C306.461456,293.967194 301.168732,292.259399 297.872314,293.807861 
	C296.459900,294.790436 295.267548,295.594055 295.261383,296.406647 
	C295.161926,309.563843 294.584259,322.761902 295.413849,335.868530 
	C296.183533,348.028503 303.875580,354.201630 315.653473,353.979187 
	C326.872345,353.767334 333.208038,347.557037 333.800232,335.101807 
	C334.385437,322.792572 334.328766,310.447723 334.258423,298.120178 
	C334.251221,296.856812 332.224121,295.604919 331.134308,294.347717 
z"/>
<path fill="#E2BA7B" opacity="1.000000" stroke="none" 
	d="
M75.000000,410.000000 
	C73.759537,408.525696 72.519073,407.051392 71.134293,404.844543 
	C70.988609,401.741241 70.987244,399.370514 70.985878,396.999756 
	C74.035057,391.985809 78.583588,389.977234 84.345787,389.992096 
	C107.163254,390.051025 129.981018,389.997894 152.798492,390.054626 
	C154.589142,390.059082 156.378479,390.590118 158.876312,391.054443 
	C160.385910,391.497040 161.187622,391.761627 161.989319,392.026215 
	C162.798538,392.932434 163.607742,393.838654 164.733521,395.222778 
	C165.380096,396.800659 165.710098,397.900665 166.040100,399.000671 
	C166.033035,400.066345 166.025970,401.132050 166.030746,402.597137 
	C163.881424,409.183838 161.456055,411.012543 155.176682,411.017700 
	C130.428436,411.037964 105.680168,411.033081 80.463074,411.062225 
	C79.245811,411.058655 78.497391,411.030396 77.205093,410.758057 
	C76.107468,410.342651 75.553734,410.171326 75.000000,410.000000 
z"/>
<path fill="#15130E" opacity="1.000000" stroke="none" 
	d="
M231.146912,338.549896 
	C223.965958,329.496796 223.196640,322.619751 228.574631,315.556091 
	C234.438202,307.854614 244.745392,305.503418 254.306351,309.659546 
	C255.512085,310.183624 256.776978,310.571625 258.684204,311.033752 
	C260.302277,310.899963 261.250671,310.755066 262.199036,310.610168 
	C264.748413,310.610168 267.297791,310.610168 269.806549,310.610168 
	C270.178680,316.548645 269.092163,317.972260 264.229126,317.279633 
	C262.673889,317.057892 261.812531,317.073425 260.951172,317.088989 
	C261.262054,318.116516 261.572968,319.144073 261.883850,320.171600 
	C263.141968,334.028351 254.703735,342.795532 240.477631,342.015411 
	C236.936661,341.821228 234.525955,343.013092 234.703461,346.222809 
	C234.787216,347.737244 237.632645,349.897675 239.552429,350.334686 
	C242.882141,351.092682 246.465027,350.738556 250.730743,350.880615 
	C253.013184,350.908295 254.506638,350.906189 256.000092,350.904083 
	C258.920410,351.959229 261.840759,353.014343 265.077271,354.156433 
	C270.831482,361.694397 269.388702,369.591949 261.354706,375.687042 
	C252.377304,382.497742 242.312134,383.530609 231.647018,380.990692 
	C230.364624,380.685272 229.131134,380.174591 227.489853,379.718750 
	C218.426865,372.812866 218.491211,367.070221 227.312851,360.275604 
	C227.956161,359.780151 228.550323,359.220886 229.156143,358.700897 
	C222.968048,349.854431 223.086792,348.644165 231.255798,342.126465 
	C231.628448,340.668915 231.387680,339.609406 231.146912,338.549896 
M243.712555,375.902710 
	C247.241119,375.251373 250.981064,375.124725 254.242661,373.810730 
	C257.993683,372.299561 259.347809,368.621216 258.736389,364.707031 
	C258.117828,360.747498 254.632645,360.219910 251.486649,360.002838 
	C246.700394,359.672699 241.876892,359.890015 237.088837,359.575867 
	C233.175598,359.319122 231.728119,361.445007 231.221375,364.770416 
	C230.291595,370.872009 234.621140,374.976929 243.712555,375.902710 
M251.516129,319.302887 
	C250.388168,317.487305 249.536560,315.400238 248.074951,313.912415 
	C244.992844,310.775085 239.735596,311.302277 237.086807,314.714691 
	C232.929581,320.070404 233.957748,330.953003 239.038666,335.373932 
	C243.383881,339.154724 249.543762,338.129974 251.154861,332.665680 
	C252.311295,328.743591 251.626587,324.278625 251.516129,319.302887 
z"/>
<path fill="#120F0A" opacity="1.000000" stroke="none" 
	d="
M379.462524,380.027924 
	C379.334961,380.476044 379.207367,380.924164 378.590759,381.820740 
	C369.397858,382.188568 360.693939,382.107941 351.990051,382.027313 
	C351.321442,378.737274 352.637604,376.885468 356.008789,376.718506 
	C360.360229,376.503021 361.190887,374.123474 361.156342,370.108185 
	C361.024384,354.779938 361.120850,339.444550 361.489685,324.120453 
	C361.591187,319.903656 360.543793,317.635773 356.226471,316.814209 
	C354.947296,316.570740 353.974335,314.718018 352.861053,313.602722 
	C354.189667,312.674652 355.401825,311.303223 356.872742,310.916779 
	C359.426880,310.245728 362.169373,310.332123 364.781586,309.832550 
	C369.102509,309.006195 372.745483,308.818909 370.969177,316.578400 
	C373.455597,314.618347 374.760590,313.589783 376.065430,312.561005 
	C386.337677,304.461792 399.397583,308.513458 403.057648,321.029907 
	C405.981232,331.027771 405.901520,341.008698 400.298004,350.017944 
	C394.461151,359.402405 385.412262,362.885559 373.916016,361.292297 
	C373.204407,358.992584 373.088409,357.090332 372.958649,354.962769 
	C376.304901,355.136566 379.084534,355.393982 381.864655,355.399414 
	C386.275574,355.408051 389.529114,353.365356 391.308197,349.309204 
	C395.418304,339.938416 394.915619,330.499512 391.060974,321.250732 
	C389.253815,316.914642 384.952026,315.039886 380.249329,316.446564 
	C376.219086,317.652130 371.268829,318.818604 371.142395,324.178040 
	C370.845123,336.781036 371.075256,349.396515 371.092041,362.006927 
	C371.003296,363.655182 370.852020,365.302856 370.836243,366.951813 
	C370.754669,375.468018 370.766754,375.468140 379.063049,378.155731 
	C379.419586,379.113739 379.441071,379.570831 379.462524,380.027924 
z"/>
<path fill="#EDC888" opacity="1.000000" stroke="none" 
	d="
M371.526062,361.991211 
	C371.075256,349.396515 370.845123,336.781036 371.142395,324.178040 
	C371.268829,318.818604 376.219086,317.652130 380.249329,316.446564 
	C384.952026,315.039886 389.253815,316.914642 391.060974,321.250732 
	C394.915619,330.499512 395.418304,339.938416 391.308197,349.309204 
	C389.529114,353.365356 386.275574,355.408051 381.864655,355.399414 
	C379.084534,355.393982 376.304901,355.136566 372.958649,354.962769 
	C373.088409,357.090332 373.204407,358.992584 373.499359,361.302155 
	C373.105560,361.798126 372.532837,361.886810 371.526062,361.991211 
z"/>
<path fill="#E1B978" opacity="1.000000" stroke="none" 
	d="
M257.776001,496.995117 
	C252.144455,496.992188 246.970093,497.224579 241.827606,496.919495 
	C236.777222,496.619873 232.209732,494.804504 230.416702,489.543182 
	C228.752975,484.661377 230.772888,480.629913 234.831024,477.873444 
	C236.494385,476.743622 238.803696,476.130463 240.843338,476.067749 
	C247.828232,475.852936 254.824173,475.946899 261.815308,475.999634 
	C267.382111,476.041656 271.426331,479.354553 271.997223,484.201996 
	C272.717651,490.318787 269.839447,494.756653 264.113647,496.129486 
	C262.199036,496.588562 260.204895,496.716095 257.776001,496.995117 
z"/>
<path fill="#EDC888" opacity="1.000000" stroke="none" 
	d="
M352.073975,382.425171 
	C360.693939,382.107941 369.397858,382.188568 378.563934,382.170959 
	C378.219055,382.710541 377.420502,383.889252 376.603638,383.902069 
	C368.967468,384.022003 361.327942,383.963074 353.690338,383.872894 
	C353.175476,383.866821 352.668549,383.188629 352.073975,382.425171 
z"/>
<path fill="#EDC888" opacity="1.000000" stroke="none" 
	d="
M379.711975,379.973938 
	C379.441071,379.570831 379.419586,379.113739 379.432068,378.312805 
	C379.631165,378.619263 379.796295,379.269623 379.711975,379.973938 
z"/>
<path fill="#161410" opacity="1.000000" stroke="none" 
	d="
M113.004982,353.018188 
	C113.451675,352.977448 113.898361,352.936737 114.919647,352.804749 
	C115.992821,352.463013 116.491394,352.212555 116.989967,351.962097 
	C117.597786,350.469147 118.712906,348.983795 118.735428,347.482056 
	C118.977348,331.350372 118.935654,315.213989 119.249100,299.084259 
	C119.319237,295.475616 118.262032,293.776794 114.659004,293.724976 
	C113.838974,293.713165 112.853302,293.682770 112.242645,293.244568 
	C111.224716,292.514099 109.642899,291.318085 109.765747,290.553955 
	C109.933731,289.508942 111.429070,287.942078 112.434921,287.879669 
	C123.690399,287.181091 134.975418,286.189209 146.220551,286.486206 
	C150.498596,286.599152 155.226562,289.110168 158.818054,291.780823 
	C166.533173,297.517792 165.526535,310.772430 157.448517,316.475861 
	C156.002380,317.496887 154.477356,318.406250 152.391006,319.753021 
	C160.560074,321.245819 166.490845,324.654572 169.161697,332.916077 
	C169.486221,334.370361 169.717514,335.191101 169.948807,336.011810 
	C169.902939,336.453918 169.857071,336.896027 169.702148,337.972961 
	C169.169830,340.761749 168.746567,342.915680 168.323318,345.069611 
	C164.089615,354.212158 156.022400,357.180267 146.215515,358.411163 
	C145.034424,358.583527 144.502792,358.737061 143.971161,358.890625 
	C132.697250,358.869354 121.423325,358.848083 109.575226,358.521423 
	C108.810196,357.787415 108.619347,357.358734 108.428505,356.930084 
	C109.060921,355.961456 109.693329,354.992828 110.918777,353.912781 
	C112.009529,353.540283 112.507256,353.279236 113.004982,353.018188 
M137.517532,323.791748 
	C135.251678,323.791748 132.985825,323.791748 130.405991,323.791748 
	C130.405991,333.904663 130.405991,343.408875 130.405991,353.169220 
	C135.422943,353.169220 140.070557,353.435059 144.676636,353.110992 
	C152.931625,352.530212 158.172272,346.784668 158.188766,338.770813 
	C158.205200,330.783447 152.985031,324.929199 144.933670,324.039001 
	C142.796570,323.802734 140.625931,323.869812 137.517532,323.791748 
M133.830124,318.870483 
	C136.323196,318.882935 138.816269,318.903564 141.309357,318.906250 
	C147.582901,318.913025 150.823532,316.443024 152.423706,310.447693 
	C155.867325,297.545563 145.785461,288.583038 130.266373,291.548950 
	C130.266373,299.832550 130.201035,308.274628 130.381073,316.711456 
	C130.396744,317.446350 132.027527,318.146790 133.830124,318.870483 
z"/>
<path fill="#FAD390" opacity="1.000000" stroke="none" 
	d="
M331.090942,294.768158 
	C332.224121,295.604919 334.251221,296.856812 334.258423,298.120178 
	C334.328766,310.447723 334.385437,322.792572 333.800232,335.101807 
	C333.208038,347.557037 326.872345,353.767334 315.653473,353.979187 
	C303.875580,354.201630 296.183533,348.028503 295.413849,335.868530 
	C294.584259,322.761902 295.161926,309.563843 295.261383,296.406647 
	C295.267548,295.594055 296.459900,294.790436 297.550293,294.007294 
	C298.100922,304.798981 298.185699,315.566284 298.354797,326.332245 
	C298.362335,326.812012 299.136414,327.279724 300.025787,328.289124 
	C304.611206,324.107666 309.220520,320.253723 313.417175,315.993256 
	C319.298065,310.022919 324.894653,303.770813 330.535156,297.568542 
	C331.007324,297.049316 330.890656,295.994537 331.090942,294.768158 
z"/>
<path fill="#16130F" opacity="1.000000" stroke="none" 
	d="
M197.524841,356.852203 
	C193.808212,358.115662 190.169800,360.026245 186.356171,360.487213 
	C180.969193,361.138397 177.016922,358.601685 174.383102,353.441559 
	C171.924683,348.625092 173.808594,345.185486 176.436523,341.547272 
	C180.514359,335.901764 186.513184,333.625458 192.930237,332.128632 
	C195.339737,331.566620 197.812378,331.275299 201.419403,330.663177 
	C200.566483,326.187805 200.127106,321.799438 198.834915,317.678467 
	C197.499680,313.420197 193.777969,312.157684 189.595123,312.602417 
	C185.319550,313.057007 185.304962,316.585144 184.839722,319.705780 
	C184.621536,321.169159 184.425034,322.635773 184.000900,325.647369 
	C181.179855,324.120605 177.767410,323.391724 177.070312,321.604004 
	C176.260315,319.526825 177.055954,315.925934 178.512665,314.029327 
	C183.033569,308.143127 195.353378,305.373657 202.419205,307.928772 
	C207.490936,309.762756 209.708237,313.802612 209.999908,318.680695 
	C210.455765,326.304565 210.392075,333.964417 210.398148,341.609131 
	C210.405991,351.466858 210.342117,351.466919 219.193130,354.786987 
	C220.056870,358.308990 218.679092,359.944519 215.017868,360.238617 
	C210.791199,360.578186 206.655029,361.015228 203.118622,356.849121 
	C202.351990,355.179718 201.916245,354.058014 201.295456,352.459900 
	C199.827789,354.169556 198.676315,355.510864 197.524841,356.852203 
M193.083740,353.144196 
	C201.788544,349.761902 201.632523,349.537720 200.118332,333.751862 
	C195.382095,336.150452 190.619156,337.747345 187.002960,340.733093 
	C185.155991,342.258026 184.477127,346.398956 184.864395,349.131592 
	C185.374664,352.732269 188.763855,353.687469 193.083740,353.144196 
z"/>
<path fill="#FAD390" opacity="1.000000" stroke="none" 
	d="
M70.631500,397.059052 
	C70.987244,399.370514 70.988609,401.741241 70.989868,404.556213 
	C66.670616,402.742065 67.168518,400.048218 70.631500,397.059052 
z"/>
<path fill="#FAD390" opacity="1.000000" stroke="none" 
	d="
M255.954788,350.550537 
	C254.506638,350.906189 253.013184,350.908295 251.174896,350.772339 
	C252.272720,347.579285 253.902573,346.698364 255.954788,350.550537 
z"/>
<path fill="#D0B17A" opacity="1.000000" stroke="none" 
	d="
M168.654114,344.982208 
	C168.746567,342.915680 169.169830,340.761749 169.776764,338.299774 
	C169.635254,340.292755 169.310074,342.593781 168.654114,344.982208 
z"/>
<path fill="#FAD390" opacity="1.000000" stroke="none" 
	d="
M197.971802,356.892670 
	C198.676315,355.510864 199.827789,354.169556 201.295456,352.459900 
	C201.916245,354.058014 202.351990,355.179718 202.830124,356.651398 
	C201.387924,356.978638 199.903351,356.955902 197.971802,356.892670 
z"/>
<path fill="#FAD390" opacity="1.000000" stroke="none" 
	d="
M166.375793,398.945740 
	C165.710098,397.900665 165.380096,396.800659 165.010040,395.356567 
	C167.396805,395.476227 169.082169,396.272888 166.375793,398.945740 
z"/>
<path fill="#FAD390" opacity="1.000000" stroke="none" 
	d="
M262.349731,320.030212 
	C261.572968,319.144073 261.262054,318.116516 260.951172,317.088989 
	C261.812531,317.073425 262.673889,317.057892 263.835785,317.234070 
	C263.696075,318.246826 263.255829,319.067810 262.349731,320.030212 
z"/>
<path fill="#FAD390" opacity="1.000000" stroke="none" 
	d="
M161.961594,391.693756 
	C161.187622,391.761627 160.385910,391.497040 159.291962,391.097534 
	C159.419952,390.432068 159.840179,389.901520 160.260422,389.370941 
	C160.818237,390.034393 161.376053,390.697845 161.961594,391.693756 
z"/>
<path fill="#D0B17A" opacity="1.000000" stroke="none" 
	d="
M170.199829,335.840820 
	C169.717514,335.191101 169.486221,334.370361 169.337189,333.232880 
	C169.763260,333.834015 170.107056,334.751892 170.199829,335.840820 
z"/>
<path fill="#FAD390" opacity="1.000000" stroke="none" 
	d="
M262.012756,310.247284 
	C261.250671,310.755066 260.302277,310.899963 259.084503,310.930847 
	C259.818909,310.506042 260.822693,310.195221 262.012756,310.247284 
z"/>
<path fill="#FAD390" opacity="1.000000" stroke="none" 
	d="
M75.030426,410.292938 
	C75.553734,410.171326 76.107468,410.342651 76.830505,410.756989 
	C76.353485,410.861969 75.707169,410.723907 75.030426,410.292938 
z"/>
<path fill="#DBBA80" opacity="1.000000" stroke="none" 
	d="
M108.163376,357.021973 
	C108.619347,357.358734 108.810196,357.787415 109.122391,358.546448 
	C108.795250,358.289185 108.346748,357.701508 108.163376,357.021973 
z"/>
<path fill="#DBBA80" opacity="1.000000" stroke="none" 
	d="
M116.850624,351.741058 
	C116.491394,352.212555 115.992821,352.463013 115.214523,352.636139 
	C115.526955,352.212524 116.119118,351.866272 116.850624,351.741058 
z"/>
<path fill="#99C975" opacity="1.000000" stroke="none" 
	d="
M209.611755,245.242508 
	C210.099365,245.260849 210.361008,245.466476 210.715149,245.909668 
	C210.403976,246.445023 210.000275,246.742798 209.340088,247.091553 
	C209.184326,246.571625 209.285049,246.000702 209.611755,245.242508 
z"/>
<path fill="#DBBA80" opacity="1.000000" stroke="none" 
	d="
M144.088272,359.116150 
	C144.502792,358.737061 145.034424,358.583527 145.822189,358.560242 
	C145.454010,358.907532 144.829697,359.124573 144.088272,359.116150 
z"/>
<path fill="#DBBA80" opacity="1.000000" stroke="none" 
	d="
M112.865822,352.788208 
	C112.507256,353.279236 112.009529,353.540283 111.228653,353.724854 
	C111.539230,353.284943 112.132950,352.921600 112.865822,352.788208 
z"/>
<path fill="#FAD390" opacity="1.000000" stroke="none" 
	d="
M231.106171,338.974060 
	C231.387680,339.609406 231.628448,340.668915 231.434570,341.838867 
	C231.021759,341.098938 231.043594,340.248566 231.106171,338.974060 
z"/>
<path fill="#8FC260" opacity="1.000000" stroke="none" 
	d="
M184.331970,182.361984 
	C186.220001,185.437332 188.071198,188.866226 189.953979,192.668564 
	C188.088760,189.599854 186.191940,186.157684 184.331970,182.361984 
z"/>
<path fill="#8FC260" opacity="1.000000" stroke="none" 
	d="
M195.775681,232.262009 
	C196.030792,233.271347 196.045380,234.534943 195.770996,235.890472 
	C195.499756,234.827011 195.517456,233.671646 195.775681,232.262009 
z"/>
<path fill="#8FC260" opacity="1.000000" stroke="none" 
	d="
M195.342072,216.356323 
	C195.805923,217.209656 196.153732,218.404541 196.240814,219.804504 
	C195.728760,218.905701 195.477402,217.801788 195.342072,216.356323 
z"/>
<path fill="#8FC260" opacity="1.000000" stroke="none" 
	d="
M194.796906,241.187592 
	C195.004517,241.631897 194.988022,242.254364 194.730042,242.934296 
	C194.516663,242.449768 194.544739,241.907761 194.796906,241.187592 
z"/>
<path fill="#8FC260" opacity="1.000000" stroke="none" 
	d="
M194.411407,209.275879 
	C194.830704,209.568802 195.146439,210.130051 195.252502,210.835846 
	C194.797836,210.501648 194.552841,210.022934 194.411407,209.275879 
z"/>
<path fill="#D5DBD1" opacity="1.000000" stroke="none" 
	d="
M99.895927,111.061554 
	C98.600815,109.202690 97.162178,107.349518 96.697350,105.277855 
	C94.733551,96.525543 94.600731,87.778488 98.111610,79.068550 
	C97.661728,88.027130 97.994606,96.900436 102.318596,105.341614 
	C102.932678,106.540413 100.970268,109.058998 99.895927,111.061554 
z"/>
<path fill="#FDFEFD" opacity="1.000000" stroke="none" 
	d="
M281.625122,81.955780 
	C275.050568,83.154961 268.657928,83.847725 262.395325,85.160728 
	C245.765762,88.647224 229.192322,92.401428 211.927643,96.147888 
	C210.820755,96.456787 210.382797,96.666962 209.944839,96.877129 
	C206.574249,96.597610 203.203644,96.318092 199.250137,95.754395 
	C198.111511,95.277138 197.555801,95.084061 197.000092,94.890984 
	C195.604935,93.344528 194.209763,91.798073 192.500641,89.786949 
	C191.877945,88.842316 191.569199,88.362350 191.260468,87.882393 
	C190.873581,82.876068 190.486694,77.869736 190.375015,72.247932 
	C192.125961,69.476768 193.601700,67.321083 195.077454,65.165405 
	C201.771439,63.301132 208.401199,61.151543 215.171677,59.626900 
	C234.318146,55.315308 253.527420,51.283291 272.701050,47.091335 
	C279.885193,45.520657 286.417603,46.873344 290.215057,53.321617 
	C293.998138,59.745506 296.069519,67.219986 291.299957,74.065407 
	C289.073608,77.260727 285.066376,79.215218 281.625122,81.955780 
z"/>
<path fill="#99C975" opacity="1.000000" stroke="none" 
	d="
M196.312439,141.059540 
	C195.544418,145.774551 194.455383,150.592331 193.089752,155.672791 
	C193.872574,151.011093 194.932007,146.086700 196.312439,141.059540 
z"/>
<path fill="#8FC463" opacity="1.000000" stroke="none" 
	d="
M194.894409,64.894028 
	C193.601700,67.321083 192.125961,69.476768 190.411163,71.854401 
	C188.946716,68.640678 190.689453,65.779030 194.894409,64.894028 
z"/>
<path fill="#99C975" opacity="1.000000" stroke="none" 
	d="
M192.565201,165.334671 
	C193.448074,167.801270 194.085358,170.535477 194.617462,173.657257 
	C193.781372,171.230637 193.050491,168.416458 192.565201,165.334671 
z"/>
<path fill="#99C975" opacity="1.000000" stroke="none" 
	d="
M207.640442,236.271332 
	C208.500549,238.127884 209.112045,240.218964 209.617188,242.677612 
	C208.804504,240.865402 208.098175,238.685623 207.640442,236.271332 
z"/>
<path fill="#DDDDD5" opacity="1.000000" stroke="none" 
	d="
M336.880219,71.693497 
	C336.910492,72.319016 336.723083,72.583527 336.231628,72.894485 
	C335.419891,71.540039 334.830872,70.081512 334.296448,68.277649 
	C335.148651,69.084930 335.946289,70.237541 336.880219,71.693497 
z"/>
<path fill="#99C975" opacity="1.000000" stroke="none" 
	d="
M206.612579,231.249130 
	C207.142258,231.837723 207.452072,232.619553 207.658966,233.725464 
	C207.168274,233.180466 206.780502,232.311432 206.612579,231.249130 
z"/>
<path fill="#99C975" opacity="1.000000" stroke="none" 
	d="
M205.559052,226.274261 
	C206.079819,226.856049 206.393509,227.632812 206.589691,228.731262 
	C206.098785,228.191696 205.725372,227.330490 205.559052,226.274261 
z"/>
<path fill="#99C975" opacity="1.000000" stroke="none" 
	d="
M194.631470,176.240738 
	C195.165497,176.830933 195.475372,177.614349 195.688782,178.722595 
	C195.197327,178.176254 194.802307,177.305115 194.631470,176.240738 
z"/>
<path fill="#99C975" opacity="1.000000" stroke="none" 
	d="
M196.594223,185.257797 
	C197.124573,185.842331 197.439301,186.622375 197.654266,187.726196 
	C197.162537,187.184418 196.770569,186.318863 196.594223,185.257797 
z"/>
<path fill="#8FC463" opacity="1.000000" stroke="none" 
	d="
M210.143280,97.159546 
	C210.382797,96.666962 210.820755,96.456787 211.510925,96.219788 
	C212.111755,96.622017 212.460388,97.051071 212.897675,97.742523 
	C212.104797,97.817268 211.223251,97.629616 210.143280,97.159546 
z"/>
<path fill="#99C975" opacity="1.000000" stroke="none" 
	d="
M203.615143,217.213333 
	C204.067474,217.548279 204.334412,218.032669 204.469666,218.787598 
	C204.035233,218.492996 203.732498,217.927902 203.615143,217.213333 
z"/>
<path fill="#99C975" opacity="1.000000" stroke="none" 
	d="
M201.636292,208.205109 
	C202.092041,208.540070 202.357651,209.025528 202.505676,209.784851 
	C202.074112,209.491013 201.760132,208.923309 201.636292,208.205109 
z"/>
<path fill="#99C975" opacity="1.000000" stroke="none" 
	d="
M199.645447,199.201874 
	C200.103271,199.536774 200.368668,200.022720 200.521423,200.783905 
	C200.090179,200.490387 199.771591,199.921646 199.645447,199.201874 
z"/>
<path fill="#99C975" opacity="1.000000" stroke="none" 
	d="
M198.712814,195.174561 
	C199.183365,195.513885 199.446381,196.002686 199.617798,196.773132 
	C199.185898,196.477859 198.845596,195.900955 198.712814,195.174561 
z"/>
<path fill="#99C975" opacity="1.000000" stroke="none" 
	d="
M197.663895,190.194031 
	C198.123474,190.531860 198.386566,191.019806 198.536530,191.783264 
	C198.104721,191.487244 197.786057,190.915695 197.663895,190.194031 
z"/>
<path fill="#99C975" opacity="1.000000" stroke="none" 
	d="
M195.711090,181.174911 
	C196.172760,181.519424 196.429306,182.012543 196.574677,182.781372 
	C196.144302,182.479218 195.825119,181.901367 195.711090,181.174911 
z"/>
<path fill="#8FC463" opacity="1.000000" stroke="none" 
	d="
M197.026123,95.197113 
	C197.555801,95.084061 198.111511,95.277138 198.844055,95.710419 
	C198.364639,95.801498 197.708405,95.652374 197.026123,95.197113 
z"/>
<path fill="#8FC463" opacity="1.000000" stroke="none" 
	d="
M190.987091,88.053467 
	C191.569199,88.362350 191.877945,88.842316 192.236649,89.610001 
	C191.762329,89.340004 191.238037,88.782272 190.987091,88.053467 
z"/>
<path fill="#F3CE8D" opacity="1.000000" stroke="none" 
	d="
M243.282150,375.875366 
	C234.621140,374.976929 230.291595,370.872009 231.221375,364.770416 
	C231.728119,361.445007 233.175598,359.319122 237.088837,359.575867 
	C241.876892,359.890015 246.700394,359.672699 251.486649,360.002838 
	C254.632645,360.219910 258.117828,360.747498 258.736389,364.707031 
	C259.347809,368.621216 257.993683,372.299561 254.242661,373.810730 
	C250.981064,375.124725 247.241119,375.251373 243.282150,375.875366 
z"/>
<path fill="#EDCA8A" opacity="1.000000" stroke="none" 
	d="
M251.639679,319.679382 
	C251.626587,324.278625 252.311295,328.743591 251.154861,332.665680 
	C249.543762,338.129974 243.383881,339.154724 239.038666,335.373932 
	C233.957748,330.953003 232.929581,320.070404 237.086807,314.714691 
	C239.735596,311.302277 244.992844,310.775085 248.074951,313.912415 
	C249.536560,315.400238 250.388168,317.487305 251.639679,319.679382 
z"/>
<path fill="#F4CF8F" opacity="1.000000" stroke="none" 
	d="
M137.994110,323.794678 
	C140.625931,323.869812 142.796570,323.802734 144.933670,324.039001 
	C152.985031,324.929199 158.205200,330.783447 158.188766,338.770813 
	C158.172272,346.784668 152.931625,352.530212 144.676636,353.110992 
	C140.070557,353.435059 135.422943,353.169220 130.405991,353.169220 
	C130.405991,343.408875 130.405991,333.904663 130.405991,323.791748 
	C132.985825,323.791748 135.251678,323.791748 137.994110,323.794678 
z"/>
<path fill="#F1CD8E" opacity="1.000000" stroke="none" 
	d="
M133.369110,318.866852 
	C132.027527,318.146790 130.396744,317.446350 130.381073,316.711456 
	C130.201035,308.274628 130.266373,299.832550 130.266373,291.548950 
	C145.785461,288.583038 155.867325,297.545563 152.423706,310.447693 
	C150.823532,316.443024 147.582901,318.913025 141.309357,318.906250 
	C138.816269,318.903564 136.323196,318.882935 133.369110,318.866852 
z"/>
<path fill="#EBC88A" opacity="1.000000" stroke="none" 
	d="
M192.674210,353.215515 
	C188.763855,353.687469 185.374664,352.732269 184.864395,349.131592 
	C184.477127,346.398956 185.155991,342.258026 187.002960,340.733093 
	C190.619156,337.747345 195.382095,336.150452 200.118332,333.751862 
	C201.632523,349.537720 201.788544,349.761902 192.674210,353.215515 
z"/>
</svg>