<svg version="1.1" id="Layer_1" xmlns="http://www.w3.org/2000/svg" xmlns:xlink="http://www.w3.org/1999/xlink" x="0px" y="0px"
	 width="100%" viewBox="0 0 512 512" enable-background="new 0 0 512 512" xml:space="preserve">
<path fill="#F8F8F8" opacity="1.000000" stroke="none" 
	d="
M291.000000,513.000000 
	C194.023544,513.000000 97.547081,513.000000 1.035313,513.000000 
	C1.035313,342.398529 1.035313,171.797028 1.035313,1.097768 
	C171.559799,1.097768 342.119690,1.097768 512.839783,1.097768 
	C512.839783,171.666550 512.839783,342.333252 512.839783,513.000000 
	C439.130341,513.000000 365.315155,513.000000 291.000000,513.000000 
M258.670105,266.252808 
	C252.580139,267.758881 246.490189,269.264954 240.941681,270.637146 
	C240.941681,256.584076 240.857727,242.777954 241.076431,228.976639 
	C241.097443,227.651505 242.740448,225.649338 244.072296,225.157242 
	C256.356140,220.618546 268.461914,215.102875 281.155304,212.284805 
	C299.768616,208.152420 318.816223,205.963760 337.692657,203.036407 
	C343.692505,202.105972 345.941101,198.786011 344.285095,192.797882 
	C341.126617,181.376709 328.863983,172.703445 317.129730,173.790054 
	C312.673340,174.202728 308.160950,174.684372 303.841888,175.790085 
	C284.221619,180.813034 264.648834,186.023804 245.092865,191.292892 
	C242.232239,192.063660 240.048065,192.965271 237.955612,189.556122 
	C237.040192,188.064697 233.927551,187.012253 231.973450,187.226517 
	C223.799454,188.122833 213.731232,198.022476 213.207397,206.199234 
	C212.144043,222.797989 211.562729,239.431000 211.005066,256.057343 
	C210.732330,264.188385 210.957855,272.336182 210.957855,280.369263 
	C202.323792,284.096649 200.802658,289.851898 206.285477,297.370575 
	C207.067780,298.443390 208.246445,299.285431 208.814743,300.443756 
	C209.985825,302.830811 211.576126,305.312286 211.743835,307.837952 
	C212.372025,317.298615 212.410294,326.796600 212.836197,336.273102 
	C213.191147,344.170502 218.110046,349.024933 224.630066,352.325714 
	C231.110260,355.606293 236.265472,353.491028 237.052246,346.413055 
	C238.297043,335.214783 238.464447,323.884521 238.801697,312.601562 
	C239.051956,304.229370 238.832550,304.173920 246.804108,301.389526 
	C273.777710,291.967865 300.725128,282.431305 329.214386,278.472504 
	C333.987305,277.809265 338.802246,277.453339 343.592499,276.908844 
	C351.713837,275.985748 354.071075,270.880280 349.461182,264.071167 
	C348.445587,262.571014 347.123901,261.259125 345.840210,259.962524 
	C338.529877,252.578613 329.571014,251.473007 319.942657,253.449921 
	C299.776001,257.590576 279.632721,261.844818 258.670105,266.252808 
M286.666992,339.615845 
	C287.552307,341.014587 288.294464,342.532959 289.346710,343.792206 
	C295.032867,350.596985 304.033936,352.719116 311.869965,349.199341 
	C319.953796,345.568207 324.692505,337.073273 323.416016,328.501099 
	C322.065918,319.434753 315.657074,312.957245 306.823547,311.730927 
	C291.669464,309.627075 281.225006,323.450470 286.666992,339.615845 
z"/>
<path fill="#11AEF8" opacity="1.000000" stroke="none" 
	d="
M259.074951,266.152588 
	C279.632721,261.844818 299.776001,257.590576 319.942657,253.449921 
	C329.571014,251.473007 338.529877,252.578613 345.840210,259.962524 
	C347.123901,261.259125 348.445587,262.571014 349.461182,264.071167 
	C354.071075,270.880280 351.713837,275.985748 343.592499,276.908844 
	C338.802246,277.453339 333.987305,277.809265 329.214386,278.472504 
	C300.725128,282.431305 273.777710,291.967865 246.804108,301.389526 
	C238.832550,304.173920 239.051956,304.229370 238.801697,312.601562 
	C238.464447,323.884521 238.297043,335.214783 237.052246,346.413055 
	C236.265472,353.491028 231.110260,355.606293 224.630066,352.325714 
	C218.110046,349.024933 213.191147,344.170502 212.836197,336.273102 
	C212.410294,326.796600 212.372025,317.298615 211.743835,307.837952 
	C211.576126,305.312286 209.985825,302.830811 208.814743,300.443756 
	C208.246445,299.285431 207.067780,298.443390 206.285477,297.370575 
	C200.802658,289.851898 202.323792,284.096649 210.957855,280.369263 
	C210.957855,272.336182 210.732330,264.188385 211.005066,256.057343 
	C211.562729,239.431000 212.144043,222.797989 213.207397,206.199234 
	C213.731232,198.022476 223.799454,188.122833 231.973450,187.226517 
	C233.927551,187.012253 237.040192,188.064697 237.955612,189.556122 
	C240.048065,192.965271 242.232239,192.063660 245.092865,191.292892 
	C264.648834,186.023804 284.221619,180.813034 303.841888,175.790085 
	C308.160950,174.684372 312.673340,174.202728 317.129730,173.790054 
	C328.863983,172.703445 341.126617,181.376709 344.285095,192.797882 
	C345.941101,198.786011 343.692505,202.105972 337.692657,203.036407 
	C318.816223,205.963760 299.768616,208.152420 281.155304,212.284805 
	C268.461914,215.102875 256.356140,220.618546 244.072296,225.157242 
	C242.740448,225.649338 241.097443,227.651505 241.076431,228.976639 
	C240.857727,242.777954 240.941681,256.584076 240.941681,270.637146 
	C246.490189,269.264954 252.580139,267.758881 259.074951,266.152588 
z"/>
<path fill="#3B4F9D" opacity="1.000000" stroke="none" 
	d="
M286.466309,339.277740 
	C281.225006,323.450470 291.669464,309.627075 306.823547,311.730927 
	C315.657074,312.957245 322.065918,319.434753 323.416016,328.501099 
	C324.692505,337.073273 319.953796,345.568207 311.869965,349.199341 
	C304.033936,352.719116 295.032867,350.596985 289.346710,343.792206 
	C288.294464,342.532959 287.552307,341.014587 286.466309,339.277740 
z"/>
</svg>